<?xml version="1.0" encoding="UTF-8" standalone="no"?>
<svg
   xmlns:dc="http://purl.org/dc/elements/1.1/"
   xmlns:cc="http://creativecommons.org/ns#"
   xmlns:rdf="http://www.w3.org/1999/02/22-rdf-syntax-ns#"
   xmlns:svg="http://www.w3.org/2000/svg"
   xmlns="http://www.w3.org/2000/svg"
   xmlns:sodipodi="http://sodipodi.sourceforge.net/DTD/sodipodi-0.dtd"
   xmlns:inkscape="http://www.inkscape.org/namespaces/inkscape"
   inkscape:version="1.0 (4035a4fb49, 2020-05-01)"
   sodipodi:docname="konveyor-weblogo-168x66px.svg"
   viewBox="0 0 168 66.000003"
   height="66"
   width="168"
   id="svg2347"
   version="1.1">
  <metadata
     id="metadata2353">
    <rdf:RDF>
      <cc:Work
         rdf:about="">
        <dc:format>image/svg+xml</dc:format>
        <dc:type
           rdf:resource="http://purl.org/dc/dcmitype/StillImage" />
        <dc:title></dc:title>
      </cc:Work>
    </rdf:RDF>
  </metadata>
  <defs
     id="defs2351" />
  <sodipodi:namedview
     borderlayer="true"
     inkscape:showpageshadow="false"
     showborder="true"
     inkscape:snap-bbox-edge-midpoints="true"
     inkscape:snap-bbox-midpoints="true"
     inkscape:object-paths="true"
     inkscape:snap-intersection-paths="true"
     inkscape:snap-smooth-nodes="true"
     inkscape:snap-midpoints="true"
     inkscape:snap-object-midpoints="true"
     inkscape:snap-center="true"
     fit-margin-bottom="1"
     fit-margin-right="1"
     fit-margin-left="1"
     inkscape:current-layer="g2355"
     inkscape:window-maximized="1"
     inkscape:window-y="0"
     inkscape:window-x="0"
     inkscape:cy="33.158742"
     inkscape:cx="-173.76144"
     inkscape:zoom="1"
     inkscape:pagecheckerboard="false"
     lock-margins="true"
     fit-margin-top="1"
     inkscape:bbox-nodes="true"
     inkscape:bbox-paths="true"
     inkscape:snap-bbox="true"
     inkscape:snap-global="true"
     showguides="false"
     showgrid="true"
     id="namedview2349"
     inkscape:window-height="1376"
     inkscape:window-width="2560"
     inkscape:pageshadow="2"
     inkscape:pageopacity="0"
     guidetolerance="10"
     gridtolerance="10"
     objecttolerance="10"
     borderopacity="1"
     bordercolor="#666666"
     pagecolor="#242424">
    <inkscape:grid
       originy="-19"
       originx="-1729.6484"
       id="grid3243"
       type="xygrid" />
  </sodipodi:namedview>
  <g
     transform="translate(-1729.6484,-18.999998)"
     id="g2355"
     inkscape:label="Image"
     inkscape:groupmode="layer">
    <g
       transform="translate(209,1)"
       id="g4687">
      <g
         transform="translate(0,1)"
         id="g4643">
        <rect
           style="vector-effect:none;fill:#000000;fill-opacity:1;stroke:none;stroke-width:0.999999;stroke-linecap:round;stroke-linejoin:round;stroke-miterlimit:4;stroke-dasharray:none;stroke-dashoffset:0;stroke-opacity:0.377953;paint-order:markers fill stroke"
           id="rect5271"
           width="11.019306"
           height="4.2932358"
           x="1590.7358"
           y="40.889637"
           rx="0"
           ry="0" />
        <path
           d="m 1587.4414,38.999998 c -0.2452,0 -0.4414,0.195437 -0.4414,0.438258 v 17.123486 c 0,0.242973 0.1964,0.438257 0.4414,0.438257 h 17.1152 c 0.2451,0 0.4434,-0.195219 0.4434,-0.438257 V 39.438256 c 0,-0.242973 -0.1982,-0.438258 -0.4434,-0.438258 z m 5.9863,2.904685 h 4.9884 c 0.4493,0 0.8105,0.35828 0.8105,0.803799 0,0.445542 -0.3612,0.8038 -0.8105,0.8038 h -4.9884 c -0.4493,0 -0.8105,-0.358258 -0.8105,-0.8038 0,-0.445519 0.3612,-0.803799 0.8105,-0.803799 z"
           style="color:#000000;overflow:visible;vector-effect:none;fill:#ac9565;fill-opacity:1;fill-rule:nonzero;stroke:none;stroke-width:0.853637;stroke-linecap:butt;stroke-linejoin:miter;stroke-miterlimit:4;stroke-dasharray:none;stroke-dashoffset:0;stroke-opacity:1;paint-order:normal"
           id="path4634" />
      </g>
      <g
         id="g4661"
         transform="translate(-20,1)">
        <rect
           ry="0"
           rx="0"
           y="40.889637"
           x="1590.7358"
           height="4.2932358"
           width="11.019306"
           id="rect4657"
           style="vector-effect:none;fill:#000000;fill-opacity:1;stroke:none;stroke-width:0.999999;stroke-linecap:round;stroke-linejoin:round;stroke-miterlimit:4;stroke-dasharray:none;stroke-dashoffset:0;stroke-opacity:0.377953;paint-order:markers fill stroke" />
        <path
           id="path4659"
           style="color:#000000;overflow:visible;vector-effect:none;fill:#ac9565;fill-opacity:1;fill-rule:nonzero;stroke:none;stroke-width:0.853637;stroke-linecap:butt;stroke-linejoin:miter;stroke-miterlimit:4;stroke-dasharray:none;stroke-dashoffset:0;stroke-opacity:1;paint-order:normal"
           d="m 1587.4414,38.999998 c -0.2452,0 -0.4414,0.195437 -0.4414,0.438258 v 17.123486 c 0,0.242973 0.1964,0.438257 0.4414,0.438257 h 17.1152 c 0.2451,0 0.4434,-0.195219 0.4434,-0.438257 V 39.438256 c 0,-0.242973 -0.1982,-0.438258 -0.4434,-0.438258 z m 5.9863,2.904685 h 4.9884 c 0.4493,0 0.8105,0.35828 0.8105,0.803799 0,0.445542 -0.3612,0.8038 -0.8105,0.8038 h -4.9884 c -0.4493,0 -0.8105,-0.358258 -0.8105,-0.8038 0,-0.445519 0.3612,-0.803799 0.8105,-0.803799 z" />
      </g>
      <g
         transform="translate(-10,-19)"
         id="g4667">
        <rect
           style="vector-effect:none;fill:#000000;fill-opacity:1;stroke:none;stroke-width:0.999999;stroke-linecap:round;stroke-linejoin:round;stroke-miterlimit:4;stroke-dasharray:none;stroke-dashoffset:0;stroke-opacity:0.377953;paint-order:markers fill stroke"
           id="rect4663"
           width="11.019306"
           height="4.2932358"
           x="1590.7358"
           y="40.889637"
           rx="0"
           ry="0" />
        <path
           d="m 1587.4414,38.999998 c -0.2452,0 -0.4414,0.195437 -0.4414,0.438258 v 17.123486 c 0,0.242973 0.1964,0.438257 0.4414,0.438257 h 17.1152 c 0.2451,0 0.4434,-0.195219 0.4434,-0.438257 V 39.438256 c 0,-0.242973 -0.1982,-0.438258 -0.4434,-0.438258 z m 5.9863,2.904685 h 4.9884 c 0.4493,0 0.8105,0.35828 0.8105,0.803799 0,0.445542 -0.3612,0.8038 -0.8105,0.8038 h -4.9884 c -0.4493,0 -0.8105,-0.358258 -0.8105,-0.8038 0,-0.445519 0.3612,-0.803799 0.8105,-0.803799 z"
           style="color:#000000;overflow:visible;vector-effect:none;fill:#ac9565;fill-opacity:1;fill-rule:nonzero;stroke:none;stroke-width:0.853637;stroke-linecap:butt;stroke-linejoin:miter;stroke-miterlimit:4;stroke-dasharray:none;stroke-dashoffset:0;stroke-opacity:1;paint-order:normal"
           id="path4665" />
      </g>
      <g
         transform="matrix(2.1635205,0,0,2.1635205,1490.8483,-322.1952)"
         style="fill:#ffffff;stroke-width:1.74693"
         id="g5293">
        <path
           style="color:#000000;font-style:normal;font-variant:normal;font-weight:normal;font-stretch:normal;font-size:medium;line-height:normal;font-family:sans-serif;font-variant-ligatures:normal;font-variant-position:normal;font-variant-caps:normal;font-variant-numeric:normal;font-variant-alternates:normal;font-feature-settings:normal;text-indent:0;text-align:start;text-decoration:none;text-decoration-line:none;text-decoration-style:solid;text-decoration-color:#000000;letter-spacing:normal;word-spacing:normal;text-transform:none;writing-mode:lr-tb;direction:ltr;text-orientation:mixed;dominant-baseline:auto;baseline-shift:baseline;text-anchor:start;white-space:normal;shape-padding:0;clip-rule:nonzero;display:inline;overflow:visible;visibility:visible;opacity:1;isolation:auto;mix-blend-mode:normal;color-interpolation:sRGB;color-interpolation-filters:linearRGB;solid-color:#000000;solid-opacity:1;vector-effect:none;fill:#ffffff;fill-opacity:1;fill-rule:nonzero;stroke:none;stroke-width:4.61077;stroke-linecap:round;stroke-linejoin:round;stroke-miterlimit:4;stroke-dasharray:none;stroke-dashoffset:0;stroke-opacity:1;color-rendering:auto;image-rendering:auto;shape-rendering:auto;text-rendering:auto;enable-background:accumulate"
           d="m 27.732234,175.75993 c -3.167626,0 -5.763897,2.59627 -5.763897,5.76389 0,3.16765 2.596271,5.76349 5.763897,5.76349 3.167648,0 5.763897,-2.59584 5.763897,-5.76349 0,-3.16762 -2.596249,-5.76389 -5.763897,-5.76389 z m 0,2.63951 c 1.741224,0 3.124407,1.38316 3.124407,3.12438 0,1.74125 -1.383183,3.12441 -3.124407,3.12441 -1.741224,0 -3.124385,-1.38316 -3.124385,-3.12441 0,-1.74122 1.383161,-3.12438 3.124385,-3.12438 z"
           id="path5277"
           inkscape:connector-curvature="0" />
        <path
           d="m 14.236107,186.43228 v -9.8172 h 2.696268 v 3.7333 l 2.986652,-3.7333 h 3.041939 l -3.567376,4.39699 3.816267,5.42021 h -3.097248 l -2.43356,-3.60886 -0.746674,0.77432 v 2.83454 z"
           style="font-style:normal;font-variant:normal;font-weight:900;font-stretch:normal;font-size:64.0488px;line-height:1.25;font-family:Raleway;-inkscape-font-specification:'Raleway Heavy';letter-spacing:0px;word-spacing:0px;fill:#ffffff;fill-opacity:1;stroke:none;stroke-width:0.603873"
           id="path5279"
           inkscape:connector-curvature="0" />
        <path
           d="m 37.033673,181.60664 v 4.82564 h -2.69629 v -9.8172 h 2.101727 l 3.940703,4.99156 v -4.99156 h 2.696268 v 9.8172 h -2.143198 z"
           style="font-style:normal;font-variant:normal;font-weight:900;font-stretch:normal;font-size:64.0488px;line-height:1.25;font-family:Raleway;-inkscape-font-specification:'Raleway Heavy';letter-spacing:0px;word-spacing:0px;fill:#ffffff;fill-opacity:1;stroke:none;stroke-width:0.603873"
           id="path5281"
           inkscape:connector-curvature="0" />
        <path
           d="m 46.657273,176.61508 1.921962,6.42957 1.894306,-6.42957 h 2.834541 l -3.608848,9.8172 h -2.239999 l -3.650319,-9.8172 z"
           style="font-style:normal;font-variant:normal;font-weight:900;font-stretch:normal;font-size:64.0488px;line-height:1.25;font-family:Raleway;-inkscape-font-specification:'Raleway Heavy';letter-spacing:0px;word-spacing:0px;fill:#ffffff;fill-opacity:1;stroke:none;stroke-width:0.603873"
           id="path5283"
           inkscape:connector-curvature="0" />
        <path
           d="m 61.051214,184.08169 v 2.35059 h -6.99648 v -9.8172 h 6.872024 v 2.3506 h -4.175756 v 1.3827 h 3.567376 v 2.18467 h -3.567376 v 1.54864 z"
           style="font-style:normal;font-variant:normal;font-weight:900;font-stretch:normal;font-size:64.0488px;line-height:1.25;font-family:Raleway;-inkscape-font-specification:'Raleway Heavy';letter-spacing:0px;word-spacing:0px;fill:#ffffff;fill-opacity:1;stroke:none;stroke-width:0.603873"
           id="path5285"
           inkscape:connector-curvature="0" />
        <path
           d="m 64.30053,176.61508 1.756034,4.2449 1.797526,-4.2449 h 2.931321 l -3.387611,6.56785 v 3.24935 h -2.682451 v -3.27701 l -3.332323,-6.54019 z"
           style="font-style:normal;font-variant:normal;font-weight:900;font-stretch:normal;font-size:64.0488px;line-height:1.25;font-family:Raleway;-inkscape-font-specification:'Raleway Heavy';letter-spacing:0px;word-spacing:0px;fill:#ffffff;fill-opacity:1;stroke:none;stroke-width:0.603873"
           id="path5287"
           inkscape:connector-curvature="0" />
        <path
           d="m 82.15587,186.43228 v -9.8172 h 4.507611 q 0.719019,0 1.327398,0.3042 0.60838,0.29036 1.037036,0.77431 0.442452,0.47013 0.691343,1.09234 0.248892,0.60838 0.248892,1.2306 0,0.85729 -0.373326,1.60394 -0.373348,0.73284 -1.037036,1.20295 l 2.07405,3.60886 h -3.041939 l -1.728379,-3.0143 h -1.009382 v 3.0143 z m 2.696268,-5.3649 h 1.700725 q 0.248891,0 0.456289,-0.27652 0.221237,-0.27655 0.221237,-0.77433 0,-0.5116 -0.248891,-0.77431 -0.24887,-0.27654 -0.497761,-0.27654 h -1.631599 z"
           style="font-style:normal;font-variant:normal;font-weight:900;font-stretch:normal;font-size:64.0488px;line-height:1.25;font-family:Raleway;-inkscape-font-specification:'Raleway Heavy';letter-spacing:0px;word-spacing:0px;fill:#ffffff;fill-opacity:1;stroke:none;stroke-width:0.603873"
           id="path5289"
           inkscape:connector-curvature="0" />
        <path
           style="color:#000000;font-style:normal;font-variant:normal;font-weight:normal;font-stretch:normal;font-size:medium;line-height:normal;font-family:sans-serif;font-variant-ligatures:normal;font-variant-position:normal;font-variant-caps:normal;font-variant-numeric:normal;font-variant-alternates:normal;font-feature-settings:normal;text-indent:0;text-align:start;text-decoration:none;text-decoration-line:none;text-decoration-style:solid;text-decoration-color:#000000;letter-spacing:normal;word-spacing:normal;text-transform:none;writing-mode:lr-tb;direction:ltr;text-orientation:mixed;dominant-baseline:auto;baseline-shift:baseline;text-anchor:start;white-space:normal;shape-padding:0;clip-rule:nonzero;display:inline;overflow:visible;visibility:visible;opacity:1;isolation:auto;mix-blend-mode:normal;color-interpolation:sRGB;color-interpolation-filters:linearRGB;solid-color:#000000;solid-opacity:1;vector-effect:none;fill:#ffffff;fill-opacity:1;fill-rule:nonzero;stroke:none;stroke-width:4.61077;stroke-linecap:round;stroke-linejoin:round;stroke-miterlimit:4;stroke-dasharray:none;stroke-dashoffset:0;stroke-opacity:1;color-rendering:auto;image-rendering:auto;shape-rendering:auto;text-rendering:auto;enable-background:accumulate"
           d="m 75.651884,175.75993 c -3.167627,0 -5.763897,2.59627 -5.763897,5.76389 0,3.16765 2.59627,5.76349 5.763897,5.76349 3.167648,0 5.763897,-2.59584 5.763897,-5.76349 0,-3.16762 -2.596249,-5.76389 -5.763897,-5.76389 z m 0,2.63951 c 1.741224,0 3.124406,1.38316 3.124406,3.12438 0,1.74125 -1.383182,3.12441 -3.124406,3.12441 -1.741224,0 -3.124385,-1.38316 -3.124385,-3.12441 0,-1.74122 1.383161,-3.12438 3.124385,-3.12438 z"
           id="path5291"
           inkscape:connector-curvature="0" />
      </g>
    </g>
  </g>
</svg>
