<?xml version="1.0" encoding="UTF-8" standalone="no"?>
<svg
   xmlns:dc="http://purl.org/dc/elements/1.1/"
   xmlns:cc="http://creativecommons.org/ns#"
   xmlns:rdf="http://www.w3.org/1999/02/22-rdf-syntax-ns#"
   xmlns:svg="http://www.w3.org/2000/svg"
   xmlns="http://www.w3.org/2000/svg"
   xmlns:sodipodi="http://sodipodi.sourceforge.net/DTD/sodipodi-0.dtd"
   xmlns:inkscape="http://www.inkscape.org/namespaces/inkscape"
   inkscape:version="1.0 (4035a4fb49, 2020-05-01)"
   sodipodi:docname="konveyor-weblogo-120x50px.svg"
   viewBox="0 0 120 50.000002"
   height="50"
   width="120"
   id="svg2347"
   version="1.1">
  <metadata
     id="metadata2353">
    <rdf:RDF>
      <cc:Work
         rdf:about="">
        <dc:format>image/svg+xml</dc:format>
        <dc:type
           rdf:resource="http://purl.org/dc/dcmitype/StillImage" />
        <dc:title></dc:title>
      </cc:Work>
    </rdf:RDF>
  </metadata>
  <defs
     id="defs2351" />
  <sodipodi:namedview
     inkscape:current-layer="g2355"
     inkscape:window-maximized="0"
     inkscape:window-y="23"
     inkscape:window-x="26"
     inkscape:cy="-4.2928506"
     inkscape:cx="55.075031"
     inkscape:zoom="5.6568542"
     inkscape:pagecheckerboard="false"
     fit-margin-bottom="2"
     fit-margin-right="2"
     fit-margin-left="2"
     lock-margins="true"
     fit-margin-top="2"
     inkscape:bbox-nodes="true"
     inkscape:bbox-paths="false"
     inkscape:snap-bbox="true"
     inkscape:snap-global="true"
     showguides="false"
     showgrid="true"
     id="namedview2349"
     inkscape:window-height="1376"
     inkscape:window-width="1792"
     inkscape:pageshadow="2"
     inkscape:pageopacity="0"
     guidetolerance="10"
     gridtolerance="10"
     objecttolerance="10"
     borderopacity="1"
     bordercolor="#666666"
     pagecolor="#0c0c0c">
    <inkscape:grid
       originy="-16.000003"
       originx="-1339.8132"
       id="grid3243"
       type="xygrid" />
  </sodipodi:namedview>
  <g
     transform="translate(-1339.8132,-16.000002)"
     id="g2355"
     inkscape:label="Image"
     inkscape:groupmode="layer">
    <g
       transform="translate(-1)"
       id="g4493">
      <path
         id="path5275"
         style="color:#000000;overflow:visible;vector-effect:none;fill:#ac9565;fill-opacity:1;fill-rule:nonzero;stroke:none;stroke-width:0.853635;stroke-linecap:butt;stroke-linejoin:miter;stroke-miterlimit:4;stroke-dasharray:none;stroke-dashoffset:0;stroke-opacity:1;paint-order:normal"
         d="m 1382.3419,18.000002 c -0.1889,0 -0.3417,0.152833 -0.3417,0.341757 v 13.317822 c 0,0.188988 0.1529,0.340422 0.3417,0.340422 h 13.3178 c 0.1889,0 0.3417,-0.15137 0.3417,-0.340422 V 18.341759 c 0,-0.188989 -0.1528,-0.341757 -0.3417,-0.341757 z m 4.7676,1.992971 h 3.672 c 0.2705,0 0.4876,0.217288 0.4876,0.487635 0,0.27036 -0.2171,0.487635 -0.4876,0.487635 h -3.672 c -0.2704,0 -0.4876,-0.217275 -0.4876,-0.487635 0,-0.270347 0.2172,-0.487635 0.4876,-0.487635 z"
         sodipodi:nodetypes="ssssssssssssssss" />
      <g
         style="stroke-width:2.44566"
         transform="matrix(1.5454011,0,0,1.5454011,1320.2958,-223.86188)"
         id="g3875">
        <g
           style="fill:#ffffff;stroke-width:2.44566"
           id="g3873"
           transform="translate(-0.31258465,-0.0976827)">
          <path
             style="color:#000000;font-style:normal;font-variant:normal;font-weight:normal;font-stretch:normal;font-size:medium;line-height:normal;font-family:sans-serif;font-variant-ligatures:normal;font-variant-position:normal;font-variant-caps:normal;font-variant-numeric:normal;font-variant-alternates:normal;font-feature-settings:normal;text-indent:0;text-align:start;text-decoration:none;text-decoration-line:none;text-decoration-style:solid;text-decoration-color:#000000;letter-spacing:normal;word-spacing:normal;text-transform:none;writing-mode:lr-tb;direction:ltr;text-orientation:mixed;dominant-baseline:auto;baseline-shift:baseline;text-anchor:start;white-space:normal;shape-padding:0;clip-rule:nonzero;display:inline;overflow:visible;visibility:visible;opacity:1;isolation:auto;mix-blend-mode:normal;color-interpolation:sRGB;color-interpolation-filters:linearRGB;solid-color:#000000;solid-opacity:1;vector-effect:none;fill:#ffffff;fill-opacity:1;fill-rule:nonzero;stroke:none;stroke-width:6.45495;stroke-linecap:round;stroke-linejoin:round;stroke-miterlimit:4;stroke-dasharray:none;stroke-dashoffset:0;stroke-opacity:1;color-rendering:auto;image-rendering:auto;shape-rendering:auto;text-rendering:auto;enable-background:accumulate"
             d="m 27.732234,175.75993 c -3.167626,0 -5.763897,2.59627 -5.763897,5.76389 0,3.16765 2.596271,5.76349 5.763897,5.76349 3.167648,0 5.763897,-2.59584 5.763897,-5.76349 0,-3.16762 -2.596249,-5.76389 -5.763897,-5.76389 z m 0,2.63951 c 1.741224,0 3.124407,1.38316 3.124407,3.12438 0,1.74125 -1.383183,3.12441 -3.124407,3.12441 -1.741224,0 -3.124385,-1.38316 -3.124385,-3.12441 0,-1.74122 1.383161,-3.12438 3.124385,-3.12438 z"
             id="path3857"
             inkscape:connector-curvature="0" />
          <path
             d="m 14.236107,186.43228 v -9.8172 h 2.696268 v 3.7333 l 2.986652,-3.7333 h 3.041939 l -3.567376,4.39699 3.816267,5.42021 h -3.097248 l -2.43356,-3.60886 -0.746674,0.77432 v 2.83454 z"
             style="font-style:normal;font-variant:normal;font-weight:900;font-stretch:normal;font-size:64.0488px;line-height:1.25;font-family:Raleway;-inkscape-font-specification:'Raleway Heavy';letter-spacing:0px;word-spacing:0px;fill:#ffffff;fill-opacity:1;stroke:none;stroke-width:0.845407"
             id="path3859"
             inkscape:connector-curvature="0" />
          <path
             d="m 37.033673,181.60664 v 4.82564 h -2.69629 v -9.8172 h 2.101727 l 3.940703,4.99156 v -4.99156 h 2.696268 v 9.8172 h -2.143198 z"
             style="font-style:normal;font-variant:normal;font-weight:900;font-stretch:normal;font-size:64.0488px;line-height:1.25;font-family:Raleway;-inkscape-font-specification:'Raleway Heavy';letter-spacing:0px;word-spacing:0px;fill:#ffffff;fill-opacity:1;stroke:none;stroke-width:0.845407"
             id="path3861"
             inkscape:connector-curvature="0" />
          <path
             d="m 46.657273,176.61508 1.921962,6.42957 1.894306,-6.42957 h 2.834541 l -3.608848,9.8172 h -2.239999 l -3.650319,-9.8172 z"
             style="font-style:normal;font-variant:normal;font-weight:900;font-stretch:normal;font-size:64.0488px;line-height:1.25;font-family:Raleway;-inkscape-font-specification:'Raleway Heavy';letter-spacing:0px;word-spacing:0px;fill:#ffffff;fill-opacity:1;stroke:none;stroke-width:0.845407"
             id="path3863"
             inkscape:connector-curvature="0" />
          <path
             d="m 61.051214,184.08169 v 2.35059 h -6.99648 v -9.8172 h 6.872024 v 2.3506 h -4.175756 v 1.3827 h 3.567376 v 2.18467 h -3.567376 v 1.54864 z"
             style="font-style:normal;font-variant:normal;font-weight:900;font-stretch:normal;font-size:64.0488px;line-height:1.25;font-family:Raleway;-inkscape-font-specification:'Raleway Heavy';letter-spacing:0px;word-spacing:0px;fill:#ffffff;fill-opacity:1;stroke:none;stroke-width:0.845407"
             id="path3865"
             inkscape:connector-curvature="0" />
          <path
             d="m 64.30053,176.61508 1.756034,4.2449 1.797526,-4.2449 h 2.931321 l -3.387611,6.56785 v 3.24935 h -2.682451 v -3.27701 l -3.332323,-6.54019 z"
             style="font-style:normal;font-variant:normal;font-weight:900;font-stretch:normal;font-size:64.0488px;line-height:1.25;font-family:Raleway;-inkscape-font-specification:'Raleway Heavy';letter-spacing:0px;word-spacing:0px;fill:#ffffff;fill-opacity:1;stroke:none;stroke-width:0.845407"
             id="path3867"
             inkscape:connector-curvature="0" />
          <path
             d="m 82.15587,186.43228 v -9.8172 h 4.507611 q 0.719019,0 1.327398,0.3042 0.60838,0.29036 1.037036,0.77431 0.442452,0.47013 0.691343,1.09234 0.248892,0.60838 0.248892,1.2306 0,0.85729 -0.373326,1.60394 -0.373348,0.73284 -1.037036,1.20295 l 2.07405,3.60886 h -3.041939 l -1.728379,-3.0143 h -1.009382 v 3.0143 z m 2.696268,-5.3649 h 1.700725 q 0.248891,0 0.456289,-0.27652 0.221237,-0.27655 0.221237,-0.77433 0,-0.5116 -0.248891,-0.77431 -0.24887,-0.27654 -0.497761,-0.27654 h -1.631599 z"
             style="font-style:normal;font-variant:normal;font-weight:900;font-stretch:normal;font-size:64.0488px;line-height:1.25;font-family:Raleway;-inkscape-font-specification:'Raleway Heavy';letter-spacing:0px;word-spacing:0px;fill:#ffffff;fill-opacity:1;stroke:none;stroke-width:0.845407"
             id="path3869"
             inkscape:connector-curvature="0" />
          <path
             style="color:#000000;font-style:normal;font-variant:normal;font-weight:normal;font-stretch:normal;font-size:medium;line-height:normal;font-family:sans-serif;font-variant-ligatures:normal;font-variant-position:normal;font-variant-caps:normal;font-variant-numeric:normal;font-variant-alternates:normal;font-feature-settings:normal;text-indent:0;text-align:start;text-decoration:none;text-decoration-line:none;text-decoration-style:solid;text-decoration-color:#000000;letter-spacing:normal;word-spacing:normal;text-transform:none;writing-mode:lr-tb;direction:ltr;text-orientation:mixed;dominant-baseline:auto;baseline-shift:baseline;text-anchor:start;white-space:normal;shape-padding:0;clip-rule:nonzero;display:inline;overflow:visible;visibility:visible;opacity:1;isolation:auto;mix-blend-mode:normal;color-interpolation:sRGB;color-interpolation-filters:linearRGB;solid-color:#000000;solid-opacity:1;vector-effect:none;fill:#ffffff;fill-opacity:1;fill-rule:nonzero;stroke:none;stroke-width:6.45495;stroke-linecap:round;stroke-linejoin:round;stroke-miterlimit:4;stroke-dasharray:none;stroke-dashoffset:0;stroke-opacity:1;color-rendering:auto;image-rendering:auto;shape-rendering:auto;text-rendering:auto;enable-background:accumulate"
             d="m 75.651884,175.75993 c -3.167627,0 -5.763897,2.59627 -5.763897,5.76389 0,3.16765 2.59627,5.76349 5.763897,5.76349 3.167648,0 5.763897,-2.59584 5.763897,-5.76349 0,-3.16762 -2.596249,-5.76389 -5.763897,-5.76389 z m 0,2.63951 c 1.741224,0 3.124406,1.38316 3.124406,3.12438 0,1.74125 -1.383182,3.12441 -3.124406,3.12441 -1.741224,0 -3.124385,-1.38316 -3.124385,-3.12441 0,-1.74122 1.383161,-3.12438 3.124385,-3.12438 z"
             id="path3871"
             inkscape:connector-curvature="0" />
        </g>
      </g>
      <path
         sodipodi:nodetypes="ssssssssssssssss"
         d="m 1374.3419,33.000002 c -0.1889,0 -0.3417,0.152833 -0.3417,0.341757 v 13.317822 c 0,0.188988 0.1529,0.340422 0.3417,0.340422 h 13.3178 c 0.1889,0 0.3417,-0.15137 0.3417,-0.340422 V 33.341759 c 0,-0.188989 -0.1528,-0.341757 -0.3417,-0.341757 z m 4.7676,1.992971 h 3.672 c 0.2705,0 0.4876,0.217288 0.4876,0.487635 0,0.27036 -0.2171,0.487635 -0.4876,0.487635 h -3.672 c -0.2704,0 -0.4876,-0.217275 -0.4876,-0.487635 0,-0.270347 0.2172,-0.487635 0.4876,-0.487635 z"
         style="color:#000000;overflow:visible;vector-effect:none;fill:#ac9565;fill-opacity:1;fill-rule:nonzero;stroke:none;stroke-width:0.853635;stroke-linecap:butt;stroke-linejoin:miter;stroke-miterlimit:4;stroke-dasharray:none;stroke-dashoffset:0;stroke-opacity:1;paint-order:normal"
         id="path4476" />
      <path
         id="path4478"
         style="color:#000000;overflow:visible;vector-effect:none;fill:#ac9565;fill-opacity:1;fill-rule:nonzero;stroke:none;stroke-width:0.853635;stroke-linecap:butt;stroke-linejoin:miter;stroke-miterlimit:4;stroke-dasharray:none;stroke-dashoffset:0;stroke-opacity:1;paint-order:normal"
         d="m 1389.3419,33.000002 c -0.1889,0 -0.3417,0.152833 -0.3417,0.341757 v 13.317822 c 0,0.188988 0.1529,0.340422 0.3417,0.340422 h 13.3178 c 0.1889,0 0.3417,-0.15137 0.3417,-0.340422 V 33.341759 c 0,-0.188989 -0.1528,-0.341757 -0.3417,-0.341757 z m 4.7676,1.992971 h 3.672 c 0.2705,0 0.4876,0.217288 0.4876,0.487635 0,0.27036 -0.2171,0.487635 -0.4876,0.487635 h -3.672 c -0.2704,0 -0.4876,-0.217275 -0.4876,-0.487635 0,-0.270347 0.2172,-0.487635 0.4876,-0.487635 z"
         sodipodi:nodetypes="ssssssssssssssss" />
    </g>
  </g>
</svg>
