<?xml version="1.0" encoding="UTF-8" standalone="no"?>
<svg
   xmlns:dc="http://purl.org/dc/elements/1.1/"
   xmlns:cc="http://creativecommons.org/ns#"
   xmlns:rdf="http://www.w3.org/1999/02/22-rdf-syntax-ns#"
   xmlns:svg="http://www.w3.org/2000/svg"
   xmlns="http://www.w3.org/2000/svg"
   xmlns:sodipodi="http://sodipodi.sourceforge.net/DTD/sodipodi-0.dtd"
   xmlns:inkscape="http://www.inkscape.org/namespaces/inkscape"
   width="60mm"
   height="60mm"
   viewBox="0 0 60 60"
   version="1.1"
   id="svg64973"
   sodipodi:docname="konveyor-logo-crane.svg"
   inkscape:version="1.0.1 (3bc2e813f5, 2020-09-07)">
  <defs
     id="defs64967" />
  <sodipodi:namedview
     id="base"
     pagecolor="#ffffff"
     bordercolor="#666666"
     borderopacity="1.0"
     inkscape:pageopacity="0.0"
     inkscape:pageshadow="2"
     inkscape:zoom="1.4142136"
     inkscape:cx="780.09858"
     inkscape:cy="282.80935"
     inkscape:document-units="mm"
     inkscape:current-layer="layer1"
     inkscape:document-rotation="0"
     showgrid="false"
     fit-margin-top="6"
     lock-margins="true"
     fit-margin-left="6"
     fit-margin-right="6"
     fit-margin-bottom="6"
     inkscape:window-width="3840"
     inkscape:window-height="1136"
     inkscape:window-x="0"
     inkscape:window-y="27"
     inkscape:window-maximized="1"
     inkscape:snap-page="true" />
  <metadata
     id="metadata64970">
    <rdf:RDF>
      <cc:Work
         rdf:about="">
        <dc:format>image/svg+xml</dc:format>
        <dc:type
           rdf:resource="http://purl.org/dc/dcmitype/StillImage" />
        <dc:title></dc:title>
      </cc:Work>
    </rdf:RDF>
  </metadata>
  <g
     inkscape:label="Layer 1"
     inkscape:groupmode="layer"
     id="layer1"
     transform="translate(-4.3148108,-7.706439)">
    <rect
       style="fill:#333481;fill-opacity:1;stroke-width:0.110915;stroke-linecap:round;stop-color:#000000"
       id="rect1021"
       width="60"
       height="60"
       x="4.3148108"
       y="7.706439" />
    <g
       id="g69459"
       transform="translate(-104.46593,-7.7166074)">
      <g
         id="g2624"
         transform="matrix(1.0420306,0,0,1.0420306,-37.738696,2.0919595)">
        <g
           id="g2616">
          <path
             style="color:#000000;display:inline;overflow:visible;opacity:1;vector-effect:none;fill:#ac9565;fill-opacity:1;fill-rule:nonzero;stroke:none;stroke-width:0.053412;stroke-linecap:butt;stroke-linejoin:miter;stroke-miterlimit:4;stroke-dasharray:none;stroke-dashoffset:0;stroke-opacity:1;paint-order:normal"
             d="m 164.91407,37.626993 c -0.13516,0.0099 -0.23628,0.12708 -0.22638,0.262186 l 0.69754,9.524369 c 0.01,0.135152 0.12707,0.236287 0.26218,0.226388 l 9.52434,-0.697844 c 0.13515,-0.0099 0.23568,-0.127037 0.22578,-0.262142 l -0.69754,-9.524369 c -0.01,-0.135152 -0.12639,-0.236338 -0.26158,-0.226432 z m 3.64807,1.090417 2.4261,-0.177721 c 0.2186,-0.01602 0.40721,0.146854 0.42323,0.365449 0.016,0.218607 -0.14685,0.407231 -0.36544,0.423247 l -2.4261,0.17772 c -0.21861,0.01602 -0.40782,-0.146809 -0.42385,-0.365416 -0.016,-0.218594 0.14746,-0.407262 0.36606,-0.423279 z"
             id="path2459"
             inkscape:connector-curvature="0"
             sodipodi:nodetypes="sccssccssccsccsc" />
          <path
             style="fill:none;stroke:#ffffff;stroke-width:1;stroke-linecap:round;stroke-linejoin:round;stroke-miterlimit:4;stroke-dasharray:none;stroke-opacity:1"
             d="m 168.06753,32.577406 -4.59851,4.818961 0.74561,11.602183 12.59428,-0.900646 -0.89615,-11.747318 -6.30179,-5.633437"
             id="path2576"
             sodipodi:nodetypes="cccccc" />
          <g
             id="g2609"
             transform="translate(8.8572794,-1.8046392)">
            <path
               id="path2578"
               style="font-variation-settings:normal;opacity:1;vector-effect:none;fill:none;fill-opacity:1;stroke:#ffffff;stroke-width:1;stroke-linecap:round;stroke-linejoin:round;stroke-miterlimit:4;stroke-dasharray:none;stroke-dashoffset:0;stroke-opacity:1;paint-order:stroke fill markers;stop-color:#000000;stop-opacity:1"
               d="m 160.68495,30.076062 -1.63076,-2.97358 1.72016,-1.181092 1.67278,1.181092 -1.76218,2.97358 c 0.9372,1e-6 1.69696,0.759753 1.69696,1.696958 0,0.937205 -0.75976,1.696959 -1.69696,1.696958 -0.9372,1e-6 -1.69696,-0.759753 -1.69696,-1.696958"
               sodipodi:nodetypes="cccccssc" />
            <path
               style="font-variation-settings:normal;opacity:1;vector-effect:none;fill:#ffffff;fill-opacity:1;stroke:#ffffff;stroke-width:0.238619;stroke-linecap:butt;stroke-linejoin:round;stroke-miterlimit:4;stroke-dasharray:none;stroke-dashoffset:0;stroke-opacity:1;paint-order:stroke fill markers;stop-color:#000000;stop-opacity:1"
               d="m 607.62739,99.844267 c -0.68686,0.246533 -1.25324,0.759053 -1.88161,1.126033 -0.79726,0.55576 -1.65681,1.04617 -2.39624,1.67232 -0.39586,0.43857 0.11284,0.94759 0.27825,1.36985 1.08226,2.0198 2.14625,4.05471 3.34667,6.00694 0.28821,0.38593 0.86661,0.18518 1.01015,-0.22807 1.31044,-2.19104 2.63236,-4.37749 3.88821,-6.59971 0.17234,-0.60548 -0.53349,-0.83524 -0.8907,-1.15533 -1.01098,-0.71967 -2.00779,-1.46288 -3.05139,-2.134447 -0.10111,-0.01673 -0.20189,-0.04864 -0.30334,-0.05759 z"
               id="path2605"
               transform="scale(0.26458333)" />
          </g>
        </g>
      </g>
      <g
         aria-label="CRANE"
         transform="matrix(1.0317449,0,0,0.96923184,0,5.2916666)"
         id="text973"
         style="font-style:normal;font-weight:normal;font-size:6.43512px;line-height:1.25;font-family:sans-serif;letter-spacing:0px;word-spacing:0px;fill:#ffffff;fill-opacity:1;stroke:none;stroke-width:0.235522">
        <path
           d="m 123.78981,58.359669 q 0,-0.418283 0.15445,-0.823696 0.16087,-0.405412 0.46332,-0.727168 0.30245,-0.321756 0.73361,-0.521245 0.43115,-0.199489 0.98457,-0.199489 0.66282,0 1.14545,0.27671 0.48907,0.270275 0.72717,0.720734 l -0.95883,0.682122 q -0.0644,-0.167313 -0.17375,-0.27671 -0.10296,-0.109397 -0.23166,-0.173748 -0.12871,-0.06435 -0.27028,-0.09009 -0.13514,-0.02574 -0.26384,-0.02574 -0.27027,0 -0.46976,0.109397 -0.19306,0.102962 -0.32176,0.27671 -0.12227,0.167313 -0.18662,0.386107 -0.0579,0.212359 -0.0579,0.424718 0,0.2381 0.0708,0.456894 0.0708,0.218794 0.20593,0.386107 0.13513,0.167313 0.32819,0.270275 0.19949,0.09653 0.44402,0.09653 0.1287,0 0.26384,-0.02574 0.13514,-0.03218 0.25741,-0.09653 0.1287,-0.07079 0.22522,-0.173749 0.10297,-0.109397 0.16088,-0.26384 l 1.02319,0.611337 q -0.10297,0.250969 -0.31532,0.450458 -0.20593,0.199489 -0.4762,0.334626 -0.26384,0.135138 -0.57273,0.205924 -0.30245,0.07079 -0.59203,0.07079 -0.50837,0 -0.93309,-0.199489 -0.41828,-0.205924 -0.72717,-0.54055 -0.30245,-0.334626 -0.46976,-0.759344 -0.16732,-0.424718 -0.16732,-0.862306 z"
           style="font-style:normal;font-variant:normal;font-weight:900;font-stretch:normal;font-family:Raleway;-inkscape-font-specification:'Raleway Heavy';text-align:center;text-anchor:middle;fill:#ffffff;stroke-width:0.235522"
           id="path65784" />
        <path
           d="m 128.48745,60.682747 v -4.568935 h 2.09785 q 0.33463,0 0.61777,0.141572 0.28315,0.135138 0.48263,0.360367 0.20593,0.218794 0.32176,0.508374 0.11583,0.283146 0.11583,0.572726 0,0.398978 -0.17375,0.746474 -0.17374,0.341061 -0.48263,0.559856 l 0.96527,1.679566 h -1.41573 l -0.80439,-1.402856 h -0.46976 v 1.402856 z m 1.25485,-2.496827 h 0.79152 q 0.11583,0 0.21236,-0.128702 0.10296,-0.128703 0.10296,-0.360367 0,-0.238099 -0.11583,-0.360367 -0.11584,-0.128702 -0.23167,-0.128702 h -0.75934 z"
           style="font-style:normal;font-variant:normal;font-weight:900;font-stretch:normal;font-family:Raleway;-inkscape-font-specification:'Raleway Heavy';text-align:center;text-anchor:middle;fill:#ffffff;stroke-width:0.235522"
           id="path65786" />
        <path
           d="m 134.01521,56.113812 h 1.14545 l 1.58304,4.568935 h -1.27415 l -0.27671,-0.894482 h -1.21624 l -0.27027,0.894482 h -1.28059 z m 0.97814,2.837888 -0.40541,-1.415727 -0.42472,1.415727 z"
           style="font-style:normal;font-variant:normal;font-weight:900;font-stretch:normal;font-family:Raleway;-inkscape-font-specification:'Raleway Heavy';text-align:center;text-anchor:middle;fill:#ffffff;stroke-width:0.235522"
           id="path65788" />
        <path
           d="m 138.37822,58.43689 v 2.245857 h -1.25484 v -4.568935 h 0.97813 l 1.83401,2.323078 v -2.323078 h 1.25485 v 4.568935 h -0.99744 z"
           style="font-style:normal;font-variant:normal;font-weight:900;font-stretch:normal;font-family:Raleway;-inkscape-font-specification:'Raleway Heavy';text-align:center;text-anchor:middle;fill:#ffffff;stroke-width:0.235522"
           id="path65790" />
        <path
           d="m 145.23162,59.588776 v 1.093971 h -3.25617 v -4.568935 h 3.19826 v 1.09397 h -1.94341 v 0.643512 h 1.66026 v 1.016749 h -1.66026 v 0.720733 z"
           style="font-style:normal;font-variant:normal;font-weight:900;font-stretch:normal;font-family:Raleway;-inkscape-font-specification:'Raleway Heavy';text-align:center;text-anchor:middle;fill:#ffffff;stroke-width:0.235522"
           id="path65792" />
      </g>
      <g
         id="g69273"
         transform="matrix(0.54535504,0,0,0.54535504,91.686932,-41.621421)">
        <g
           style="display:inline"
           id="g69271"
           transform="matrix(0.36700213,0,0,0.36700213,22.822023,85.613794)">
          <g
             id="g69269"
             style="fill:#ffffff"
             transform="matrix(1.0329332,0,0,1.0329332,103.14109,74.914583)">
            <path
               inkscape:connector-curvature="0"
               id="path69253"
               d="m 27.732234,175.75993 c -3.167626,0 -5.763897,2.59627 -5.763897,5.76389 0,3.16765 2.596271,5.76349 5.763897,5.76349 3.167648,0 5.763897,-2.59584 5.763897,-5.76349 0,-3.16762 -2.596249,-5.76389 -5.763897,-5.76389 z m 0,2.63951 c 1.741224,0 3.124407,1.38316 3.124407,3.12438 0,1.74125 -1.383183,3.12441 -3.124407,3.12441 -1.741224,0 -3.124385,-1.38316 -3.124385,-3.12441 0,-1.74122 1.383161,-3.12438 3.124385,-3.12438 z"
               style="color:#000000;font-style:normal;font-variant:normal;font-weight:normal;font-stretch:normal;font-size:medium;line-height:normal;font-family:sans-serif;font-variant-ligatures:normal;font-variant-position:normal;font-variant-caps:normal;font-variant-numeric:normal;font-variant-alternates:normal;font-feature-settings:normal;text-indent:0;text-align:start;text-decoration:none;text-decoration-line:none;text-decoration-style:solid;text-decoration-color:#000000;letter-spacing:normal;word-spacing:normal;text-transform:none;writing-mode:lr-tb;direction:ltr;text-orientation:mixed;dominant-baseline:auto;baseline-shift:baseline;text-anchor:start;white-space:normal;shape-padding:0;clip-rule:nonzero;display:inline;overflow:visible;visibility:visible;opacity:1;isolation:auto;mix-blend-mode:normal;color-interpolation:sRGB;color-interpolation-filters:linearRGB;solid-color:#000000;solid-opacity:1;vector-effect:none;fill:#ffffff;fill-opacity:1;fill-rule:nonzero;stroke:none;stroke-width:2.63935;stroke-linecap:round;stroke-linejoin:round;stroke-miterlimit:4;stroke-dasharray:none;stroke-dashoffset:0;stroke-opacity:1;color-rendering:auto;image-rendering:auto;shape-rendering:auto;text-rendering:auto;enable-background:accumulate" />
            <path
               inkscape:connector-curvature="0"
               id="path69255"
               style="font-style:normal;font-variant:normal;font-weight:900;font-stretch:normal;font-size:64.0488px;line-height:1.25;font-family:Raleway;-inkscape-font-specification:'Raleway Heavy';letter-spacing:0px;word-spacing:0px;fill:#ffffff;fill-opacity:1;stroke:none;stroke-width:0.345676"
               d="m 14.236107,186.43228 v -9.8172 h 2.696268 v 3.7333 l 2.986652,-3.7333 h 3.041939 l -3.567376,4.39699 3.816267,5.42021 h -3.097248 l -2.43356,-3.60886 -0.746674,0.77432 v 2.83454 z" />
            <path
               inkscape:connector-curvature="0"
               id="path69257"
               style="font-style:normal;font-variant:normal;font-weight:900;font-stretch:normal;font-size:64.0488px;line-height:1.25;font-family:Raleway;-inkscape-font-specification:'Raleway Heavy';letter-spacing:0px;word-spacing:0px;fill:#ffffff;fill-opacity:1;stroke:none;stroke-width:0.345676"
               d="m 37.033673,181.60664 v 4.82564 h -2.69629 v -9.8172 h 2.101727 l 3.940703,4.99156 v -4.99156 h 2.696268 v 9.8172 h -2.143198 z" />
            <path
               inkscape:connector-curvature="0"
               id="path69259"
               style="font-style:normal;font-variant:normal;font-weight:900;font-stretch:normal;font-size:64.0488px;line-height:1.25;font-family:Raleway;-inkscape-font-specification:'Raleway Heavy';letter-spacing:0px;word-spacing:0px;fill:#ffffff;fill-opacity:1;stroke:none;stroke-width:0.345676"
               d="m 46.657273,176.61508 1.921962,6.42957 1.894306,-6.42957 h 2.834541 l -3.608848,9.8172 h -2.239999 l -3.650319,-9.8172 z" />
            <path
               inkscape:connector-curvature="0"
               id="path69261"
               style="font-style:normal;font-variant:normal;font-weight:900;font-stretch:normal;font-size:64.0488px;line-height:1.25;font-family:Raleway;-inkscape-font-specification:'Raleway Heavy';letter-spacing:0px;word-spacing:0px;fill:#ffffff;fill-opacity:1;stroke:none;stroke-width:0.345676"
               d="m 61.051214,184.08169 v 2.35059 h -6.99648 v -9.8172 h 6.872024 v 2.3506 h -4.175756 v 1.3827 h 3.567376 v 2.18467 h -3.567376 v 1.54864 z" />
            <path
               inkscape:connector-curvature="0"
               id="path69263"
               style="font-style:normal;font-variant:normal;font-weight:900;font-stretch:normal;font-size:64.0488px;line-height:1.25;font-family:Raleway;-inkscape-font-specification:'Raleway Heavy';letter-spacing:0px;word-spacing:0px;fill:#ffffff;fill-opacity:1;stroke:none;stroke-width:0.345676"
               d="m 64.30053,176.61508 1.756034,4.2449 1.797526,-4.2449 h 2.931321 l -3.387611,6.56785 v 3.24935 h -2.682451 v -3.27701 l -3.332323,-6.54019 z" />
            <path
               inkscape:connector-curvature="0"
               id="path69265"
               style="font-style:normal;font-variant:normal;font-weight:900;font-stretch:normal;font-size:64.0488px;line-height:1.25;font-family:Raleway;-inkscape-font-specification:'Raleway Heavy';letter-spacing:0px;word-spacing:0px;fill:#ffffff;fill-opacity:1;stroke:none;stroke-width:0.345676"
               d="m 82.15587,186.43228 v -9.8172 h 4.507611 q 0.719019,0 1.327398,0.3042 0.60838,0.29036 1.037036,0.77431 0.442452,0.47013 0.691343,1.09234 0.248892,0.60838 0.248892,1.2306 0,0.85729 -0.373326,1.60394 -0.373348,0.73284 -1.037036,1.20295 l 2.07405,3.60886 h -3.041939 l -1.728379,-3.0143 h -1.009382 v 3.0143 z m 2.696268,-5.3649 h 1.700725 q 0.248891,0 0.456289,-0.27652 0.221237,-0.27655 0.221237,-0.77433 0,-0.5116 -0.248891,-0.77431 -0.24887,-0.27654 -0.497761,-0.27654 h -1.631599 z" />
            <path
               inkscape:connector-curvature="0"
               id="path69267"
               d="m 75.651884,175.75993 c -3.167627,0 -5.763897,2.59627 -5.763897,5.76389 0,3.16765 2.59627,5.76349 5.763897,5.76349 3.167648,0 5.763897,-2.59584 5.763897,-5.76349 0,-3.16762 -2.596249,-5.76389 -5.763897,-5.76389 z m 0,2.63951 c 1.741224,0 3.124406,1.38316 3.124406,3.12438 0,1.74125 -1.383182,3.12441 -3.124406,3.12441 -1.741224,0 -3.124385,-1.38316 -3.124385,-3.12441 0,-1.74122 1.383161,-3.12438 3.124385,-3.12438 z"
               style="color:#000000;font-style:normal;font-variant:normal;font-weight:normal;font-stretch:normal;font-size:medium;line-height:normal;font-family:sans-serif;font-variant-ligatures:normal;font-variant-position:normal;font-variant-caps:normal;font-variant-numeric:normal;font-variant-alternates:normal;font-feature-settings:normal;text-indent:0;text-align:start;text-decoration:none;text-decoration-line:none;text-decoration-style:solid;text-decoration-color:#000000;letter-spacing:normal;word-spacing:normal;text-transform:none;writing-mode:lr-tb;direction:ltr;text-orientation:mixed;dominant-baseline:auto;baseline-shift:baseline;text-anchor:start;white-space:normal;shape-padding:0;clip-rule:nonzero;display:inline;overflow:visible;visibility:visible;opacity:1;isolation:auto;mix-blend-mode:normal;color-interpolation:sRGB;color-interpolation-filters:linearRGB;solid-color:#000000;solid-opacity:1;vector-effect:none;fill:#ffffff;fill-opacity:1;fill-rule:nonzero;stroke:none;stroke-width:2.63935;stroke-linecap:round;stroke-linejoin:round;stroke-miterlimit:4;stroke-dasharray:none;stroke-dashoffset:0;stroke-opacity:1;color-rendering:auto;image-rendering:auto;shape-rendering:auto;text-rendering:auto;enable-background:accumulate" />
          </g>
        </g>
      </g>
    </g>
  </g>
</svg>
