<?xml version="1.0" encoding="UTF-8" standalone="no"?>
<svg
   xmlns:dc="http://purl.org/dc/elements/1.1/"
   xmlns:cc="http://creativecommons.org/ns#"
   xmlns:rdf="http://www.w3.org/1999/02/22-rdf-syntax-ns#"
   xmlns:svg="http://www.w3.org/2000/svg"
   xmlns="http://www.w3.org/2000/svg"
   xmlns:sodipodi="http://sodipodi.sourceforge.net/DTD/sodipodi-0.dtd"
   xmlns:inkscape="http://www.inkscape.org/namespaces/inkscape"
   width="60mm"
   height="60mm"
   viewBox="0 0 60 60"
   version="1.1"
   id="svg64973"
   sodipodi:docname="konveyor-logo-tackle.svg"
   inkscape:version="1.0.1 (3bc2e813f5, 2020-09-07)">
  <defs
     id="defs64967" />
  <sodipodi:namedview
     id="base"
     pagecolor="#ffffff"
     bordercolor="#666666"
     borderopacity="1.0"
     inkscape:pageopacity="0.0"
     inkscape:pageshadow="2"
     inkscape:zoom="1.4142136"
     inkscape:cx="780.09858"
     inkscape:cy="282.80935"
     inkscape:document-units="mm"
     inkscape:current-layer="layer1"
     inkscape:document-rotation="0"
     showgrid="false"
     fit-margin-top="6"
     lock-margins="true"
     fit-margin-left="6"
     fit-margin-right="6"
     fit-margin-bottom="6"
     inkscape:window-width="3840"
     inkscape:window-height="1136"
     inkscape:window-x="0"
     inkscape:window-y="27"
     inkscape:window-maximized="1"
     inkscape:snap-page="true" />
  <metadata
     id="metadata64970">
    <rdf:RDF>
      <cc:Work
         rdf:about="">
        <dc:format>image/svg+xml</dc:format>
        <dc:type
           rdf:resource="http://purl.org/dc/dcmitype/StillImage" />
        <dc:title></dc:title>
      </cc:Work>
    </rdf:RDF>
  </metadata>
  <g
     inkscape:label="Layer 1"
     inkscape:groupmode="layer"
     id="layer1"
     transform="translate(-4.3148108,-7.706439)">
    <rect
       style="fill:#333481;fill-opacity:1;stroke-width:0.110915;stroke-linecap:round;stop-color:#000000"
       id="rect1021"
       width="60"
       height="60"
       x="4.3148108"
       y="7.706439" />
    <g
       id="g69545"
       transform="translate(-205.01745,-8.4125478)">
      <g
         aria-label="TACKLE"
         transform="matrix(1.0317449,0,0,0.96923184,0,5.2916666)"
         id="text2288"
         style="font-style:normal;font-weight:normal;font-size:6.43512px;line-height:1.25;font-family:sans-serif;letter-spacing:0px;word-spacing:0px;fill:#ffffff;fill-opacity:1;stroke:none;stroke-width:0.235522">
        <path
           d="m 223.88595,57.207782 h -1.31276 v 3.474965 h -1.25485 v -3.474965 h -1.3192 v -1.09397 h 3.88681 z"
           style="font-style:normal;font-variant:normal;font-weight:900;font-stretch:normal;font-family:Raleway;-inkscape-font-specification:'Raleway Heavy';text-align:center;text-anchor:middle;fill:#ffffff;stroke-width:0.235522"
           id="path65755" />
        <path
           d="m 225.10861,56.113812 h 1.14545 l 1.58304,4.568935 h -1.27415 l -0.27671,-0.894482 H 225.07 l -0.27027,0.894482 h -1.28059 z m 0.97814,2.837888 -0.40541,-1.415727 -0.42472,1.415727 z"
           style="font-style:normal;font-variant:normal;font-weight:900;font-stretch:normal;font-family:Raleway;-inkscape-font-specification:'Raleway Heavy';text-align:center;text-anchor:middle;fill:#ffffff;stroke-width:0.235522"
           id="path65757" />
        <path
           d="m 227.77918,58.359669 q 0,-0.418283 0.15444,-0.823696 0.16088,-0.405412 0.46333,-0.727168 0.30245,-0.321756 0.7336,-0.521245 0.43116,-0.199489 0.98458,-0.199489 0.66282,0 1.14545,0.27671 0.48907,0.270275 0.72717,0.720734 l -0.95884,0.682122 q -0.0643,-0.167313 -0.17374,-0.27671 -0.10297,-0.109397 -0.23167,-0.173748 -0.1287,-0.06435 -0.27027,-0.09009 -0.13514,-0.02574 -0.26384,-0.02574 -0.27028,0 -0.46977,0.109397 -0.19305,0.102962 -0.32175,0.27671 -0.12227,0.167313 -0.18662,0.386107 -0.0579,0.212359 -0.0579,0.424718 0,0.2381 0.0708,0.456894 0.0708,0.218794 0.20592,0.386107 0.13514,0.167313 0.32819,0.270275 0.19949,0.09653 0.44403,0.09653 0.1287,0 0.26384,-0.02574 0.13514,-0.03218 0.2574,-0.09653 0.1287,-0.07079 0.22523,-0.173749 0.10296,-0.109397 0.16088,-0.26384 l 1.02318,0.611337 q -0.10296,0.250969 -0.31532,0.450458 -0.20592,0.199489 -0.4762,0.334626 -0.26384,0.135138 -0.57272,0.205924 -0.30245,0.07079 -0.59203,0.07079 -0.50838,0 -0.9331,-0.199489 -0.41828,-0.205924 -0.72716,-0.54055 -0.30245,-0.334626 -0.46977,-0.759344 -0.16731,-0.424718 -0.16731,-0.862306 z"
           style="font-style:normal;font-variant:normal;font-weight:900;font-stretch:normal;font-family:Raleway;-inkscape-font-specification:'Raleway Heavy';text-align:center;text-anchor:middle;fill:#ffffff;stroke-width:0.235522"
           id="path65759" />
        <path
           d="m 232.47682,60.682747 v -4.568935 h 1.25484 v 1.737482 l 1.38999,-1.737482 h 1.41573 l -1.66026,2.046368 1.77609,2.522567 h -1.44147 l -1.13258,-1.679566 -0.3475,0.360366 v 1.3192 z"
           style="font-style:normal;font-variant:normal;font-weight:900;font-stretch:normal;font-family:Raleway;-inkscape-font-specification:'Raleway Heavy';text-align:center;text-anchor:middle;fill:#ffffff;stroke-width:0.235522"
           id="path65761" />
        <path
           d="m 236.91704,60.682747 v -4.568935 h 1.25485 v 3.474964 h 2.07211 v 1.093971 z"
           style="font-style:normal;font-variant:normal;font-weight:900;font-stretch:normal;font-family:Raleway;-inkscape-font-specification:'Raleway Heavy';text-align:center;text-anchor:middle;fill:#ffffff;stroke-width:0.235522"
           id="path65763" />
        <path
           d="m 243.93775,59.588776 v 1.093971 h -3.25617 v -4.568935 h 3.19825 v 1.09397 h -1.9434 v 0.643512 h 1.66026 v 1.016749 h -1.66026 v 0.720733 z"
           style="font-style:normal;font-variant:normal;font-weight:900;font-stretch:normal;font-family:Raleway;-inkscape-font-specification:'Raleway Heavy';text-align:center;text-anchor:middle;fill:#ffffff;stroke-width:0.235522"
           id="path65765" />
      </g>
      <g
         id="g2463"
         transform="matrix(0.90772136,0,0,0.90772136,359.27307,7.5950594)">
        <path
           id="rect2425"
           style="fill:#ac9565;fill-opacity:1;stroke:none;stroke-width:1.18509;stroke-linecap:round;stroke-linejoin:round;stroke-miterlimit:4;stroke-dasharray:none;stop-color:#000000"
           d="m -128.72275,22.582008 1.2896,0.744549 v 10.143591 l -1.2896,-0.744549 z" />
        <path
           id="rect2427"
           style="fill:#ac9565;fill-opacity:1;stroke:none;stroke-width:1.18509;stroke-linecap:round;stroke-linejoin:round;stroke-miterlimit:4;stroke-dasharray:none;stop-color:#000000"
           d="m -135.7946,22.582006 -1.2896,0.744549 v 10.597553 l 1.2896,-0.744549 z" />
        <path
           id="path2374"
           style="fill:#ffffff;fill-opacity:1;stroke:none;stroke-width:2.98605;stroke-linecap:round;stroke-linejoin:round;stroke-miterlimit:4;stroke-dasharray:none;stop-color:#000000"
           d="m -499.73242,102.29102 a 22.084495,22.084495 0 0 0 -22.08399,22.08593 22.084495,22.084495 0 0 0 0.97071,6.47071 l -0.0762,0.0254 10.35938,31.11328 a 11.042247,11.042247 0 0 0 10.83008,8.88867 11.042247,11.042247 0 0 0 10.69531,-8.29492 l 10.55859,-31.70703 -0.13281,-0.0449 a 22.084495,22.084495 0 0 0 0.96485,-6.45117 22.084495,22.084495 0 0 0 -22.08594,-22.08593 z"
           transform="scale(0.26458333)" />
        <path
           id="circle2403"
           style="fill:#ac9565;fill-opacity:1;stroke:none;stroke-width:0.255198;stroke-linecap:round;stroke-linejoin:round;stroke-miterlimit:4;stroke-dasharray:none;stop-color:#000000"
           d="m -132.22071,39.922655 c -1.01902,0 -1.84949,0.807586 -1.88623,1.817636 -4.2e-4,0.01166 -5.2e-4,1.704532 -6.3e-4,3.247138 0,0.35126 0.0671,0.500402 0.2863,0.719606 1.02133,1.021458 2.1696,2.169901 2.17496,2.175534 0.48627,0.522967 0.50754,1.376195 -0.0343,1.850297 v 2.09e-4 c -0.5444,0.476357 -1.33522,0.520486 -1.85785,0.02715 -0.003,-0.0027 -0.91803,-0.919504 -1.55491,-1.557974 -0.20089,-0.200889 -0.60646,-0.100374 -0.60646,0.325568 0,0.484724 0.53525,0.453437 0.53525,0.680027 3e-5,1.652555 1.29127,2.823371 2.94383,2.823403 1.65263,8.1e-5 2.99241,-1.339605 2.99244,-2.99224 -5e-5,-0.904337 -0.40908,-1.760143 -1.11275,-2.328183 -4.2e-4,-1.969883 0.007,-4.943609 0.007,-4.956038 -0.0293,-1.01678 -0.86277,-1.832128 -1.88663,-1.832128 z"
           sodipodi:nodetypes="sccccccccscccccss" />
        <path
           id="path2423"
           style="fill:#333481;fill-opacity:1;stroke:none;stroke-width:1.01209;stroke-linecap:round;stroke-linejoin:round;stroke-miterlimit:4;stroke-dasharray:none;stop-color:#000000"
           inkscape:transform-center-y="-1.7993755e-06"
           d="m -130.58787,34.630302 c -0.10334,0.09797 -2.17146,0.593345 -2.30797,0.552829 -0.13651,-0.04051 -1.59957,-1.583864 -1.63274,-1.722343 -0.0332,-0.138475 0.57187,-2.177204 0.67522,-2.275172 0.10334,-0.09796 2.17145,-0.59334 2.30796,-0.552829 0.13651,0.04052 1.59958,1.583869 1.63275,1.722344 0.0332,0.138479 -0.57188,2.177208 -0.67522,2.275171 z" />
        <path
           id="path2429"
           style="fill:#333481;fill-opacity:1;stroke:none;stroke-width:0.506044;stroke-linecap:round;stroke-linejoin:round;stroke-miterlimit:4;stroke-dasharray:none;stop-color:#000000"
           inkscape:transform-center-y="-1.1010552e-06"
           d="m -131.40424,42.772222 c -0.0517,0.04898 -1.08573,0.296672 -1.15399,0.276414 -0.0682,-0.02026 -0.79979,-0.791932 -0.81637,-0.861172 -0.0166,-0.06924 0.28594,-1.088602 0.33761,-1.137586 0.0517,-0.04898 1.08573,-0.29667 1.15398,-0.276414 0.0683,0.02026 0.79979,0.791934 0.81638,0.861172 0.0166,0.06924 -0.28594,1.088604 -0.33761,1.137586 z" />
      </g>
      <g
         id="g69317"
         transform="matrix(0.54535504,0,0,0.54535504,190.95042,-41.621421)">
        <g
           style="display:inline"
           id="g69315"
           transform="matrix(0.36700213,0,0,0.36700213,22.822023,85.613794)">
          <g
             id="g69313"
             style="fill:#ffffff"
             transform="matrix(1.0329332,0,0,1.0329332,103.14109,74.914583)">
            <path
               inkscape:connector-curvature="0"
               id="path69297"
               d="m 27.732234,175.75993 c -3.167626,0 -5.763897,2.59627 -5.763897,5.76389 0,3.16765 2.596271,5.76349 5.763897,5.76349 3.167648,0 5.763897,-2.59584 5.763897,-5.76349 0,-3.16762 -2.596249,-5.76389 -5.763897,-5.76389 z m 0,2.63951 c 1.741224,0 3.124407,1.38316 3.124407,3.12438 0,1.74125 -1.383183,3.12441 -3.124407,3.12441 -1.741224,0 -3.124385,-1.38316 -3.124385,-3.12441 0,-1.74122 1.383161,-3.12438 3.124385,-3.12438 z"
               style="color:#000000;font-style:normal;font-variant:normal;font-weight:normal;font-stretch:normal;font-size:medium;line-height:normal;font-family:sans-serif;font-variant-ligatures:normal;font-variant-position:normal;font-variant-caps:normal;font-variant-numeric:normal;font-variant-alternates:normal;font-feature-settings:normal;text-indent:0;text-align:start;text-decoration:none;text-decoration-line:none;text-decoration-style:solid;text-decoration-color:#000000;letter-spacing:normal;word-spacing:normal;text-transform:none;writing-mode:lr-tb;direction:ltr;text-orientation:mixed;dominant-baseline:auto;baseline-shift:baseline;text-anchor:start;white-space:normal;shape-padding:0;clip-rule:nonzero;display:inline;overflow:visible;visibility:visible;opacity:1;isolation:auto;mix-blend-mode:normal;color-interpolation:sRGB;color-interpolation-filters:linearRGB;solid-color:#000000;solid-opacity:1;vector-effect:none;fill:#ffffff;fill-opacity:1;fill-rule:nonzero;stroke:none;stroke-width:2.63935;stroke-linecap:round;stroke-linejoin:round;stroke-miterlimit:4;stroke-dasharray:none;stroke-dashoffset:0;stroke-opacity:1;color-rendering:auto;image-rendering:auto;shape-rendering:auto;text-rendering:auto;enable-background:accumulate" />
            <path
               inkscape:connector-curvature="0"
               id="path69299"
               style="font-style:normal;font-variant:normal;font-weight:900;font-stretch:normal;font-size:64.0488px;line-height:1.25;font-family:Raleway;-inkscape-font-specification:'Raleway Heavy';letter-spacing:0px;word-spacing:0px;fill:#ffffff;fill-opacity:1;stroke:none;stroke-width:0.345676"
               d="m 14.236107,186.43228 v -9.8172 h 2.696268 v 3.7333 l 2.986652,-3.7333 h 3.041939 l -3.567376,4.39699 3.816267,5.42021 h -3.097248 l -2.43356,-3.60886 -0.746674,0.77432 v 2.83454 z" />
            <path
               inkscape:connector-curvature="0"
               id="path69301"
               style="font-style:normal;font-variant:normal;font-weight:900;font-stretch:normal;font-size:64.0488px;line-height:1.25;font-family:Raleway;-inkscape-font-specification:'Raleway Heavy';letter-spacing:0px;word-spacing:0px;fill:#ffffff;fill-opacity:1;stroke:none;stroke-width:0.345676"
               d="m 37.033673,181.60664 v 4.82564 h -2.69629 v -9.8172 h 2.101727 l 3.940703,4.99156 v -4.99156 h 2.696268 v 9.8172 h -2.143198 z" />
            <path
               inkscape:connector-curvature="0"
               id="path69303"
               style="font-style:normal;font-variant:normal;font-weight:900;font-stretch:normal;font-size:64.0488px;line-height:1.25;font-family:Raleway;-inkscape-font-specification:'Raleway Heavy';letter-spacing:0px;word-spacing:0px;fill:#ffffff;fill-opacity:1;stroke:none;stroke-width:0.345676"
               d="m 46.657273,176.61508 1.921962,6.42957 1.894306,-6.42957 h 2.834541 l -3.608848,9.8172 h -2.239999 l -3.650319,-9.8172 z" />
            <path
               inkscape:connector-curvature="0"
               id="path69305"
               style="font-style:normal;font-variant:normal;font-weight:900;font-stretch:normal;font-size:64.0488px;line-height:1.25;font-family:Raleway;-inkscape-font-specification:'Raleway Heavy';letter-spacing:0px;word-spacing:0px;fill:#ffffff;fill-opacity:1;stroke:none;stroke-width:0.345676"
               d="m 61.051214,184.08169 v 2.35059 h -6.99648 v -9.8172 h 6.872024 v 2.3506 h -4.175756 v 1.3827 h 3.567376 v 2.18467 h -3.567376 v 1.54864 z" />
            <path
               inkscape:connector-curvature="0"
               id="path69307"
               style="font-style:normal;font-variant:normal;font-weight:900;font-stretch:normal;font-size:64.0488px;line-height:1.25;font-family:Raleway;-inkscape-font-specification:'Raleway Heavy';letter-spacing:0px;word-spacing:0px;fill:#ffffff;fill-opacity:1;stroke:none;stroke-width:0.345676"
               d="m 64.30053,176.61508 1.756034,4.2449 1.797526,-4.2449 h 2.931321 l -3.387611,6.56785 v 3.24935 h -2.682451 v -3.27701 l -3.332323,-6.54019 z" />
            <path
               inkscape:connector-curvature="0"
               id="path69309"
               style="font-style:normal;font-variant:normal;font-weight:900;font-stretch:normal;font-size:64.0488px;line-height:1.25;font-family:Raleway;-inkscape-font-specification:'Raleway Heavy';letter-spacing:0px;word-spacing:0px;fill:#ffffff;fill-opacity:1;stroke:none;stroke-width:0.345676"
               d="m 82.15587,186.43228 v -9.8172 h 4.507611 q 0.719019,0 1.327398,0.3042 0.60838,0.29036 1.037036,0.77431 0.442452,0.47013 0.691343,1.09234 0.248892,0.60838 0.248892,1.2306 0,0.85729 -0.373326,1.60394 -0.373348,0.73284 -1.037036,1.20295 l 2.07405,3.60886 h -3.041939 l -1.728379,-3.0143 h -1.009382 v 3.0143 z m 2.696268,-5.3649 h 1.700725 q 0.248891,0 0.456289,-0.27652 0.221237,-0.27655 0.221237,-0.77433 0,-0.5116 -0.248891,-0.77431 -0.24887,-0.27654 -0.497761,-0.27654 h -1.631599 z" />
            <path
               inkscape:connector-curvature="0"
               id="path69311"
               d="m 75.651884,175.75993 c -3.167627,0 -5.763897,2.59627 -5.763897,5.76389 0,3.16765 2.59627,5.76349 5.763897,5.76349 3.167648,0 5.763897,-2.59584 5.763897,-5.76349 0,-3.16762 -2.596249,-5.76389 -5.763897,-5.76389 z m 0,2.63951 c 1.741224,0 3.124406,1.38316 3.124406,3.12438 0,1.74125 -1.383182,3.12441 -3.124406,3.12441 -1.741224,0 -3.124385,-1.38316 -3.124385,-3.12441 0,-1.74122 1.383161,-3.12438 3.124385,-3.12438 z"
               style="color:#000000;font-style:normal;font-variant:normal;font-weight:normal;font-stretch:normal;font-size:medium;line-height:normal;font-family:sans-serif;font-variant-ligatures:normal;font-variant-position:normal;font-variant-caps:normal;font-variant-numeric:normal;font-variant-alternates:normal;font-feature-settings:normal;text-indent:0;text-align:start;text-decoration:none;text-decoration-line:none;text-decoration-style:solid;text-decoration-color:#000000;letter-spacing:normal;word-spacing:normal;text-transform:none;writing-mode:lr-tb;direction:ltr;text-orientation:mixed;dominant-baseline:auto;baseline-shift:baseline;text-anchor:start;white-space:normal;shape-padding:0;clip-rule:nonzero;display:inline;overflow:visible;visibility:visible;opacity:1;isolation:auto;mix-blend-mode:normal;color-interpolation:sRGB;color-interpolation-filters:linearRGB;solid-color:#000000;solid-opacity:1;vector-effect:none;fill:#ffffff;fill-opacity:1;fill-rule:nonzero;stroke:none;stroke-width:2.63935;stroke-linecap:round;stroke-linejoin:round;stroke-miterlimit:4;stroke-dasharray:none;stroke-dashoffset:0;stroke-opacity:1;color-rendering:auto;image-rendering:auto;shape-rendering:auto;text-rendering:auto;enable-background:accumulate" />
          </g>
        </g>
      </g>
    </g>
  </g>
</svg>
