<?xml version="1.0" encoding="UTF-8" standalone="no"?>
<svg
   xmlns:dc="http://purl.org/dc/elements/1.1/"
   xmlns:cc="http://creativecommons.org/ns#"
   xmlns:rdf="http://www.w3.org/1999/02/22-rdf-syntax-ns#"
   xmlns:svg="http://www.w3.org/2000/svg"
   xmlns="http://www.w3.org/2000/svg"
   xmlns:sodipodi="http://sodipodi.sourceforge.net/DTD/sodipodi-0.dtd"
   xmlns:inkscape="http://www.inkscape.org/namespaces/inkscape"
   width="60mm"
   height="60mm"
   viewBox="0 0 60 60"
   version="1.1"
   id="svg64973"
   sodipodi:docname="konveyor-logo-pelorus.svg"
   inkscape:version="1.0.1 (3bc2e813f5, 2020-09-07)">
  <defs
     id="defs64967" />
  <sodipodi:namedview
     id="base"
     pagecolor="#ffffff"
     bordercolor="#666666"
     borderopacity="1.0"
     inkscape:pageopacity="0.0"
     inkscape:pageshadow="2"
     inkscape:zoom="1.4142136"
     inkscape:cx="780.09858"
     inkscape:cy="282.80935"
     inkscape:document-units="mm"
     inkscape:current-layer="layer1"
     inkscape:document-rotation="0"
     showgrid="false"
     fit-margin-top="6"
     lock-margins="true"
     fit-margin-left="6"
     fit-margin-right="6"
     fit-margin-bottom="6"
     inkscape:window-width="3840"
     inkscape:window-height="1136"
     inkscape:window-x="0"
     inkscape:window-y="27"
     inkscape:window-maximized="1"
     inkscape:snap-page="true" />
  <metadata
     id="metadata64970">
    <rdf:RDF>
      <cc:Work
         rdf:about="">
        <dc:format>image/svg+xml</dc:format>
        <dc:type
           rdf:resource="http://purl.org/dc/dcmitype/StillImage" />
        <dc:title></dc:title>
      </cc:Work>
    </rdf:RDF>
  </metadata>
  <g
     inkscape:label="Layer 1"
     inkscape:groupmode="layer"
     id="layer1"
     transform="translate(-4.3148108,-7.706439)">
    <rect
       style="fill:#333481;fill-opacity:1;stroke-width:0.110915;stroke-linecap:round;stop-color:#000000"
       id="rect1021"
       width="60"
       height="60"
       x="4.3148108"
       y="7.706439" />
    <g
       id="g69518"
       transform="translate(-154.93254,-9.4614458)">
      <g
         id="g69378">
        <g
           id="g1150"
           transform="translate(248.18108,1.7300794)">
          <g
             id="g1046">
            <path
               id="path1040"
               style="fill:#ac9565;fill-opacity:1;stroke:none;stroke-width:0.3;stop-color:#000000"
               d="m -45.801729,41.305992 a 0.54889858,0.54889858 0 0 1 -0.548899,0.548899 0.54889858,0.54889858 0 0 1 -0.548898,-0.548899 0.54889858,0.54889858 0 0 1 0.548898,-0.548898 0.54889858,0.54889858 0 0 1 0.548899,0.548898 z" />
            <path
               id="circle1042"
               style="fill:#ac9565;fill-opacity:1;stroke:none;stroke-width:0.3;stop-color:#000000"
               d="m -70.431433,41.305992 a 0.54889858,0.54889858 0 0 1 -0.548898,0.548899 0.54889858,0.54889858 0 0 1 -0.548899,-0.548899 0.54889858,0.54889858 0 0 1 0.548899,-0.548898 0.54889858,0.54889858 0 0 1 0.548898,0.548898 z" />
          </g>
          <g
             id="g1052"
             transform="rotate(-15,-58.66548,41.305992)">
            <path
               id="circle1048"
               style="fill:#ac9565;fill-opacity:1;stroke:none;stroke-width:0.3;stop-color:#000000"
               d="m -45.801729,41.305992 a 0.54889858,0.54889858 0 0 1 -0.548899,0.548899 0.54889858,0.54889858 0 0 1 -0.548898,-0.548899 0.54889858,0.54889858 0 0 1 0.548898,-0.548898 0.54889858,0.54889858 0 0 1 0.548899,0.548898 z" />
            <path
               id="circle1050"
               style="fill:#ac9565;fill-opacity:1;stroke:none;stroke-width:0.3;stop-color:#000000"
               d="m -70.431433,41.305992 a 0.54889858,0.54889858 0 0 1 -0.548898,0.548899 0.54889858,0.54889858 0 0 1 -0.548899,-0.548899 0.54889858,0.54889858 0 0 1 0.548899,-0.548898 0.54889858,0.54889858 0 0 1 0.548898,0.548898 z" />
          </g>
          <g
             id="g1058"
             transform="rotate(-30,-58.66548,41.305992)">
            <path
               id="circle1054"
               style="fill:#ac9565;fill-opacity:1;stroke:none;stroke-width:0.3;stop-color:#000000"
               d="m -45.801729,41.305992 a 0.54889858,0.54889858 0 0 1 -0.548899,0.548899 0.54889858,0.54889858 0 0 1 -0.548898,-0.548899 0.54889858,0.54889858 0 0 1 0.548898,-0.548898 0.54889858,0.54889858 0 0 1 0.548899,0.548898 z" />
            <path
               id="circle1056"
               style="fill:#ac9565;fill-opacity:1;stroke:none;stroke-width:0.3;stop-color:#000000"
               d="m -70.431433,41.305992 a 0.54889858,0.54889858 0 0 1 -0.548898,0.548899 0.54889858,0.54889858 0 0 1 -0.548899,-0.548899 0.54889858,0.54889858 0 0 1 0.548899,-0.548898 0.54889858,0.54889858 0 0 1 0.548898,0.548898 z" />
          </g>
          <g
             id="g1064"
             transform="rotate(-45,-58.66548,41.305992)">
            <path
               id="circle1060"
               style="fill:#ac9565;fill-opacity:1;stroke:none;stroke-width:0.3;stop-color:#000000"
               d="m -45.801729,41.305992 a 0.54889858,0.54889858 0 0 1 -0.548899,0.548899 0.54889858,0.54889858 0 0 1 -0.548898,-0.548899 0.54889858,0.54889858 0 0 1 0.548898,-0.548898 0.54889858,0.54889858 0 0 1 0.548899,0.548898 z" />
            <path
               id="circle1062"
               style="fill:#ac9565;fill-opacity:1;stroke:none;stroke-width:0.3;stop-color:#000000"
               d="m -70.431433,41.305992 a 0.54889858,0.54889858 0 0 1 -0.548898,0.548899 0.54889858,0.54889858 0 0 1 -0.548899,-0.548899 0.54889858,0.54889858 0 0 1 0.548899,-0.548898 0.54889858,0.54889858 0 0 1 0.548898,0.548898 z" />
          </g>
          <g
             id="g1070"
             transform="rotate(-60,-58.66548,41.305992)">
            <path
               id="circle1066"
               style="fill:#ac9565;fill-opacity:1;stroke:none;stroke-width:0.3;stop-color:#000000"
               d="m -45.801729,41.305992 a 0.54889858,0.54889858 0 0 1 -0.548899,0.548899 0.54889858,0.54889858 0 0 1 -0.548898,-0.548899 0.54889858,0.54889858 0 0 1 0.548898,-0.548898 0.54889858,0.54889858 0 0 1 0.548899,0.548898 z" />
          </g>
          <g
             id="g1076"
             transform="rotate(-75,-58.66548,41.305992)">
            <path
               id="circle1072"
               style="fill:#ac9565;fill-opacity:1;stroke:none;stroke-width:0.3;stop-color:#000000"
               d="m -45.801729,41.305992 a 0.54889858,0.54889858 0 0 1 -0.548899,0.548899 0.54889858,0.54889858 0 0 1 -0.548898,-0.548899 0.54889858,0.54889858 0 0 1 0.548898,-0.548898 0.54889858,0.54889858 0 0 1 0.548899,0.548898 z" />
          </g>
          <g
             id="g1082"
             transform="rotate(-90,-58.66548,41.305992)">
            <path
               id="circle1078"
               style="fill:#ac9565;fill-opacity:1;stroke:none;stroke-width:0.3;stop-color:#000000"
               d="m -45.801729,41.305992 a 0.54889858,0.54889858 0 0 1 -0.548899,0.548899 0.54889858,0.54889858 0 0 1 -0.548898,-0.548899 0.54889858,0.54889858 0 0 1 0.548898,-0.548898 0.54889858,0.54889858 0 0 1 0.548899,0.548898 z" />
          </g>
          <g
             id="g1088"
             transform="rotate(-105,-58.66548,41.305992)">
            <path
               id="circle1084"
               style="fill:#ac9565;fill-opacity:1;stroke:none;stroke-width:0.3;stop-color:#000000"
               d="m -45.801729,41.305992 a 0.54889858,0.54889858 0 0 1 -0.548899,0.548899 0.54889858,0.54889858 0 0 1 -0.548898,-0.548899 0.54889858,0.54889858 0 0 1 0.548898,-0.548898 0.54889858,0.54889858 0 0 1 0.548899,0.548898 z" />
          </g>
          <g
             id="g1094"
             transform="rotate(-120,-58.66548,41.305992)">
            <path
               id="circle1090"
               style="fill:#ac9565;fill-opacity:1;stroke:none;stroke-width:0.3;stop-color:#000000"
               d="m -45.801729,41.305992 a 0.54889858,0.54889858 0 0 1 -0.548899,0.548899 0.54889858,0.54889858 0 0 1 -0.548898,-0.548899 0.54889858,0.54889858 0 0 1 0.548898,-0.548898 0.54889858,0.54889858 0 0 1 0.548899,0.548898 z" />
          </g>
          <g
             id="g1100"
             transform="rotate(-135,-58.66548,41.305992)">
            <path
               id="circle1096"
               style="fill:#ac9565;fill-opacity:1;stroke:none;stroke-width:0.3;stop-color:#000000"
               d="m -45.801729,41.305992 a 0.54889858,0.54889858 0 0 1 -0.548899,0.548899 0.54889858,0.54889858 0 0 1 -0.548898,-0.548899 0.54889858,0.54889858 0 0 1 0.548898,-0.548898 0.54889858,0.54889858 0 0 1 0.548899,0.548898 z" />
            <path
               id="circle1098"
               style="fill:#ac9565;fill-opacity:1;stroke:none;stroke-width:0.3;stop-color:#000000"
               d="m -70.431433,41.305992 a 0.54889858,0.54889858 0 0 1 -0.548898,0.548899 0.54889858,0.54889858 0 0 1 -0.548899,-0.548899 0.54889858,0.54889858 0 0 1 0.548899,-0.548898 0.54889858,0.54889858 0 0 1 0.548898,0.548898 z" />
          </g>
          <g
             id="g1106"
             transform="rotate(-150,-58.66548,41.305992)">
            <path
               id="circle1102"
               style="fill:#ac9565;fill-opacity:1;stroke:none;stroke-width:0.3;stop-color:#000000"
               d="m -45.801729,41.305992 a 0.54889858,0.54889858 0 0 1 -0.548899,0.548899 0.54889858,0.54889858 0 0 1 -0.548898,-0.548899 0.54889858,0.54889858 0 0 1 0.548898,-0.548898 0.54889858,0.54889858 0 0 1 0.548899,0.548898 z" />
            <path
               id="circle1104"
               style="fill:#ac9565;fill-opacity:1;stroke:none;stroke-width:0.3;stop-color:#000000"
               d="m -70.431433,41.305992 a 0.54889858,0.54889858 0 0 1 -0.548898,0.548899 0.54889858,0.54889858 0 0 1 -0.548899,-0.548899 0.54889858,0.54889858 0 0 1 0.548899,-0.548898 0.54889858,0.54889858 0 0 1 0.548898,0.548898 z" />
          </g>
          <g
             id="g1112"
             transform="rotate(-165,-58.66548,41.305992)">
            <path
               id="circle1108"
               style="fill:#ac9565;fill-opacity:1;stroke:none;stroke-width:0.3;stop-color:#000000"
               d="m -45.801729,41.305992 a 0.54889858,0.54889858 0 0 1 -0.548899,0.548899 0.54889858,0.54889858 0 0 1 -0.548898,-0.548899 0.54889858,0.54889858 0 0 1 0.548898,-0.548898 0.54889858,0.54889858 0 0 1 0.548899,0.548898 z" />
            <path
               id="circle1110"
               style="fill:#ac9565;fill-opacity:1;stroke:none;stroke-width:0.3;stop-color:#000000"
               d="m -70.431433,41.305992 a 0.54889858,0.54889858 0 0 1 -0.548898,0.548899 0.54889858,0.54889858 0 0 1 -0.548899,-0.548899 0.54889858,0.54889858 0 0 1 0.548899,-0.548898 0.54889858,0.54889858 0 0 1 0.548898,0.548898 z" />
          </g>
        </g>
        <g
           id="g5310"
           transform="rotate(45,63.867458,340.19604)">
          <path
             id="rect5276"
             style="fill:#ac9565;fill-opacity:1;stroke:none;stroke-width:1;stroke-miterlimit:4;stroke-dasharray:none;stroke-dashoffset:0;stop-color:#000000"
             d="m -57.473466,30.073874 v 11.272955 h 1.978204 v -9.295212 z" />
          <path
             id="rect5278"
             style="fill:#ffffff;fill-opacity:1;stroke:none;stroke-width:1;stroke-miterlimit:4;stroke-dasharray:none;stroke-dashoffset:0;stop-color:#000000"
             d="m -57.473466,30.073874 -1.977743,1.977743 v 9.295212 h 1.977743 z" />
          <path
             id="path5302"
             style="fill:#ac9565;fill-opacity:1;stroke:none;stroke-width:1;stroke-miterlimit:4;stroke-dasharray:none;stroke-dashoffset:0;stop-color:#000000"
             d="M -57.473005,52.619784 V 41.346829 h -1.978204 v 9.295211 z" />
          <path
             id="path5304"
             style="fill:#ffffff;fill-opacity:1;stroke:none;stroke-width:1;stroke-miterlimit:4;stroke-dasharray:none;stroke-dashoffset:0;stop-color:#000000"
             d="m -57.473005,52.619784 1.977743,-1.977744 v -9.295211 h -1.977743 z" />
        </g>
      </g>
      <g
         aria-label="PELORUS"
         transform="matrix(1.0317449,0,0,0.96923184,0,5.2916666)"
         id="text963"
         style="font-style:normal;font-weight:normal;font-size:6.43512px;line-height:1.25;font-family:sans-serif;letter-spacing:0px;word-spacing:0px;fill:#ffffff;fill-opacity:1;stroke:none;stroke-width:0.235522">
        <path
           d="m 168.9327,60.682747 v -4.568935 h 1.96915 q 0.33463,0 0.61777,0.141572 0.28315,0.135138 0.48264,0.360367 0.20592,0.218794 0.32175,0.508374 0.11583,0.283146 0.11583,0.572726 0,0.302451 -0.10939,0.592031 -0.1094,0.283145 -0.30889,0.508375 -0.19305,0.218794 -0.4762,0.353931 -0.27671,0.128703 -0.61133,0.128703 h -0.74648 v 1.402856 z m 1.25485,-2.496827 h 0.66282 q 0.11583,0 0.21236,-0.102962 0.10296,-0.109397 0.10296,-0.386107 0,-0.283145 -0.11583,-0.386107 -0.11583,-0.102962 -0.23167,-0.102962 h -0.63064 z"
           style="font-style:normal;font-variant:normal;font-weight:900;font-stretch:normal;font-family:Raleway;-inkscape-font-specification:'Raleway Heavy';text-align:center;text-anchor:middle;fill:#ffffff;stroke-width:0.235522"
           id="path65769" />
        <path
           d="m 176.19795,59.588776 v 1.093971 h -3.25617 v -4.568935 h 3.19825 v 1.09397 h -1.9434 v 0.643512 h 1.66026 v 1.016749 h -1.66026 v 0.720733 z"
           style="font-style:normal;font-variant:normal;font-weight:900;font-stretch:normal;font-family:Raleway;-inkscape-font-specification:'Raleway Heavy';text-align:center;text-anchor:middle;fill:#ffffff;stroke-width:0.235522"
           id="path65771" />
        <path
           d="m 176.78353,60.682747 v -4.568935 h 1.25485 v 3.474964 h 2.07211 v 1.093971 z"
           style="font-style:normal;font-variant:normal;font-weight:900;font-stretch:normal;font-family:Raleway;-inkscape-font-specification:'Raleway Heavy';text-align:center;text-anchor:middle;fill:#ffffff;stroke-width:0.235522"
           id="path65773" />
        <path
           d="m 182.54939,60.721358 q -0.52124,0 -0.94596,-0.199489 -0.42472,-0.199489 -0.72717,-0.521245 -0.30245,-0.328191 -0.46977,-0.746474 -0.16731,-0.418283 -0.16731,-0.862306 0,-0.450458 0.17375,-0.868741 0.17375,-0.418283 0.48263,-0.733604 0.31532,-0.321756 0.74004,-0.508374 0.43116,-0.193054 0.93953,-0.193054 0.52124,0 0.94596,0.199489 0.42472,0.199489 0.72717,0.52768 0.30245,0.328191 0.46333,0.746474 0.16731,0.418282 0.16731,0.855871 0,0.450458 -0.17374,0.868741 -0.17375,0.411848 -0.48264,0.733604 -0.30888,0.31532 -0.74004,0.508374 -0.42472,0.193054 -0.93309,0.193054 z m -1.03605,-2.316644 q 0,0.231665 0.0643,0.450459 0.0644,0.212359 0.19305,0.379672 0.1287,0.167313 0.32176,0.270275 0.19948,0.102962 0.46976,0.102962 0.27028,0 0.46976,-0.102962 0.19949,-0.109397 0.32176,-0.27671 0.1287,-0.173748 0.18662,-0.392543 0.0643,-0.218794 0.0643,-0.444023 0,-0.231664 -0.0643,-0.444023 -0.0644,-0.218794 -0.19949,-0.379672 -0.1287,-0.167313 -0.32819,-0.26384 -0.19306,-0.102962 -0.4569,-0.102962 -0.27027,0 -0.46976,0.102962 -0.19305,0.102962 -0.32175,0.27671 -0.12871,0.167313 -0.19306,0.386107 -0.0579,0.212359 -0.0579,0.437588 z"
           style="font-style:normal;font-variant:normal;font-weight:900;font-stretch:normal;font-family:Raleway;-inkscape-font-specification:'Raleway Heavy';text-align:center;text-anchor:middle;fill:#ffffff;stroke-width:0.235522"
           id="path65775" />
        <path
           d="m 185.41301,60.682747 v -4.568935 h 2.09785 q 0.33463,0 0.61777,0.141572 0.28315,0.135138 0.48264,0.360367 0.20592,0.218794 0.32175,0.508374 0.11584,0.283146 0.11584,0.572726 0,0.398978 -0.17375,0.746474 -0.17375,0.341061 -0.48264,0.559856 l 0.96527,1.679566 h -1.41572 l -0.80439,-1.402856 h -0.46977 v 1.402856 z m 1.25485,-2.496827 h 0.79152 q 0.11583,0 0.21236,-0.128702 0.10296,-0.128703 0.10296,-0.360367 0,-0.238099 -0.11583,-0.360367 -0.11583,-0.128702 -0.23166,-0.128702 h -0.75935 z"
           style="font-style:normal;font-variant:normal;font-weight:900;font-stretch:normal;font-family:Raleway;-inkscape-font-specification:'Raleway Heavy';text-align:center;text-anchor:middle;fill:#ffffff;stroke-width:0.235522"
           id="path65777" />
        <path
           d="m 191.71299,59.608082 q 0.21879,0 0.37324,-0.09653 0.15444,-0.09653 0.25097,-0.25097 0.0965,-0.160878 0.14157,-0.366802 0.045,-0.205923 0.045,-0.431153 v -2.348818 h 1.25485 v 2.348818 q 0,0.476199 -0.12227,0.894482 -0.12226,0.411848 -0.37967,0.714298 -0.2574,0.302451 -0.64994,0.476199 -0.38611,0.173749 -0.91379,0.173749 -0.54699,0 -0.93953,-0.180184 -0.38611,-0.186618 -0.63708,-0.495504 -0.25097,-0.308886 -0.3668,-0.714298 -0.11583,-0.411848 -0.11583,-0.868742 v -2.348818 h 1.25485 v 2.348818 q 0,0.22523 0.045,0.437589 0.0451,0.205923 0.14158,0.366801 0.0965,0.154443 0.24453,0.25097 0.15444,0.09009 0.37324,0.09009 z"
           style="font-style:normal;font-variant:normal;font-weight:900;font-stretch:normal;font-family:Raleway;-inkscape-font-specification:'Raleway Heavy';text-align:center;text-anchor:middle;fill:#ffffff;stroke-width:0.235522"
           id="path65779" />
        <path
           d="m 197.26649,57.606759 q -0.19306,-0.115832 -0.39898,-0.205923 -0.17375,-0.07722 -0.39254,-0.141573 -0.21236,-0.07079 -0.41829,-0.07079 -0.16731,0 -0.27027,0.05148 -0.0965,0.05148 -0.0965,0.173748 0,0.09009 0.0579,0.148008 0.0579,0.05792 0.16731,0.109397 0.1094,0.04505 0.26384,0.09009 0.16088,0.04505 0.36037,0.109397 0.31532,0.09653 0.56629,0.212359 0.2574,0.115833 0.43759,0.276711 0.18018,0.154442 0.27671,0.379672 0.0965,0.225229 0.0965,0.546985 0,0.411848 -0.15444,0.694993 -0.14801,0.27671 -0.39898,0.444023 -0.24453,0.167313 -0.55985,0.244535 -0.30889,0.07079 -0.62421,0.07079 -0.25097,0 -0.51481,-0.03861 -0.26384,-0.03861 -0.52768,-0.109397 -0.2574,-0.07079 -0.50194,-0.167313 -0.2381,-0.09653 -0.44402,-0.218794 l 0.54055,-1.100406 q 0.22523,0.141573 0.46976,0.25097 0.20593,0.09653 0.46333,0.173748 0.26384,0.07722 0.53412,0.07722 0.20592,0 0.28314,-0.05148 0.0837,-0.05792 0.0837,-0.148008 0,-0.09653 -0.0837,-0.160878 -0.0772,-0.07079 -0.21879,-0.122267 -0.14158,-0.05148 -0.32819,-0.102962 -0.18019,-0.05148 -0.38611,-0.122267 -0.30245,-0.102962 -0.52125,-0.218794 -0.21879,-0.122268 -0.36036,-0.270276 -0.14158,-0.154442 -0.21236,-0.347496 -0.0643,-0.193054 -0.0643,-0.444023 0,-0.379672 0.13513,-0.669253 0.14158,-0.28958 0.37968,-0.482634 0.2381,-0.193053 0.54055,-0.28958 0.30888,-0.102962 0.64994,-0.102962 0.25097,0 0.48907,0.05148 0.2381,0.04505 0.4569,0.122267 0.22523,0.07079 0.41828,0.160878 0.19305,0.08366 0.3475,0.160878 z"
           style="font-style:normal;font-variant:normal;font-weight:900;font-stretch:normal;font-family:Raleway;-inkscape-font-specification:'Raleway Heavy';text-align:center;text-anchor:middle;fill:#ffffff;stroke-width:0.235522"
           id="path65781" />
      </g>
      <g
         id="g69295"
         transform="matrix(0.54535504,0,0,0.54535504,138.26288,-41.621421)">
        <g
           style="display:inline"
           id="g69293"
           transform="matrix(0.36700213,0,0,0.36700213,22.822023,85.613794)">
          <g
             id="g69291"
             style="fill:#ffffff"
             transform="matrix(1.0329332,0,0,1.0329332,103.14109,74.914583)">
            <path
               inkscape:connector-curvature="0"
               id="path69275"
               d="m 27.732234,175.75993 c -3.167626,0 -5.763897,2.59627 -5.763897,5.76389 0,3.16765 2.596271,5.76349 5.763897,5.76349 3.167648,0 5.763897,-2.59584 5.763897,-5.76349 0,-3.16762 -2.596249,-5.76389 -5.763897,-5.76389 z m 0,2.63951 c 1.741224,0 3.124407,1.38316 3.124407,3.12438 0,1.74125 -1.383183,3.12441 -3.124407,3.12441 -1.741224,0 -3.124385,-1.38316 -3.124385,-3.12441 0,-1.74122 1.383161,-3.12438 3.124385,-3.12438 z"
               style="color:#000000;font-style:normal;font-variant:normal;font-weight:normal;font-stretch:normal;font-size:medium;line-height:normal;font-family:sans-serif;font-variant-ligatures:normal;font-variant-position:normal;font-variant-caps:normal;font-variant-numeric:normal;font-variant-alternates:normal;font-feature-settings:normal;text-indent:0;text-align:start;text-decoration:none;text-decoration-line:none;text-decoration-style:solid;text-decoration-color:#000000;letter-spacing:normal;word-spacing:normal;text-transform:none;writing-mode:lr-tb;direction:ltr;text-orientation:mixed;dominant-baseline:auto;baseline-shift:baseline;text-anchor:start;white-space:normal;shape-padding:0;clip-rule:nonzero;display:inline;overflow:visible;visibility:visible;opacity:1;isolation:auto;mix-blend-mode:normal;color-interpolation:sRGB;color-interpolation-filters:linearRGB;solid-color:#000000;solid-opacity:1;vector-effect:none;fill:#ffffff;fill-opacity:1;fill-rule:nonzero;stroke:none;stroke-width:2.63935;stroke-linecap:round;stroke-linejoin:round;stroke-miterlimit:4;stroke-dasharray:none;stroke-dashoffset:0;stroke-opacity:1;color-rendering:auto;image-rendering:auto;shape-rendering:auto;text-rendering:auto;enable-background:accumulate" />
            <path
               inkscape:connector-curvature="0"
               id="path69277"
               style="font-style:normal;font-variant:normal;font-weight:900;font-stretch:normal;font-size:64.0488px;line-height:1.25;font-family:Raleway;-inkscape-font-specification:'Raleway Heavy';letter-spacing:0px;word-spacing:0px;fill:#ffffff;fill-opacity:1;stroke:none;stroke-width:0.345676"
               d="m 14.236107,186.43228 v -9.8172 h 2.696268 v 3.7333 l 2.986652,-3.7333 h 3.041939 l -3.567376,4.39699 3.816267,5.42021 h -3.097248 l -2.43356,-3.60886 -0.746674,0.77432 v 2.83454 z" />
            <path
               inkscape:connector-curvature="0"
               id="path69279"
               style="font-style:normal;font-variant:normal;font-weight:900;font-stretch:normal;font-size:64.0488px;line-height:1.25;font-family:Raleway;-inkscape-font-specification:'Raleway Heavy';letter-spacing:0px;word-spacing:0px;fill:#ffffff;fill-opacity:1;stroke:none;stroke-width:0.345676"
               d="m 37.033673,181.60664 v 4.82564 h -2.69629 v -9.8172 h 2.101727 l 3.940703,4.99156 v -4.99156 h 2.696268 v 9.8172 h -2.143198 z" />
            <path
               inkscape:connector-curvature="0"
               id="path69281"
               style="font-style:normal;font-variant:normal;font-weight:900;font-stretch:normal;font-size:64.0488px;line-height:1.25;font-family:Raleway;-inkscape-font-specification:'Raleway Heavy';letter-spacing:0px;word-spacing:0px;fill:#ffffff;fill-opacity:1;stroke:none;stroke-width:0.345676"
               d="m 46.657273,176.61508 1.921962,6.42957 1.894306,-6.42957 h 2.834541 l -3.608848,9.8172 h -2.239999 l -3.650319,-9.8172 z" />
            <path
               inkscape:connector-curvature="0"
               id="path69283"
               style="font-style:normal;font-variant:normal;font-weight:900;font-stretch:normal;font-size:64.0488px;line-height:1.25;font-family:Raleway;-inkscape-font-specification:'Raleway Heavy';letter-spacing:0px;word-spacing:0px;fill:#ffffff;fill-opacity:1;stroke:none;stroke-width:0.345676"
               d="m 61.051214,184.08169 v 2.35059 h -6.99648 v -9.8172 h 6.872024 v 2.3506 h -4.175756 v 1.3827 h 3.567376 v 2.18467 h -3.567376 v 1.54864 z" />
            <path
               inkscape:connector-curvature="0"
               id="path69285"
               style="font-style:normal;font-variant:normal;font-weight:900;font-stretch:normal;font-size:64.0488px;line-height:1.25;font-family:Raleway;-inkscape-font-specification:'Raleway Heavy';letter-spacing:0px;word-spacing:0px;fill:#ffffff;fill-opacity:1;stroke:none;stroke-width:0.345676"
               d="m 64.30053,176.61508 1.756034,4.2449 1.797526,-4.2449 h 2.931321 l -3.387611,6.56785 v 3.24935 h -2.682451 v -3.27701 l -3.332323,-6.54019 z" />
            <path
               inkscape:connector-curvature="0"
               id="path69287"
               style="font-style:normal;font-variant:normal;font-weight:900;font-stretch:normal;font-size:64.0488px;line-height:1.25;font-family:Raleway;-inkscape-font-specification:'Raleway Heavy';letter-spacing:0px;word-spacing:0px;fill:#ffffff;fill-opacity:1;stroke:none;stroke-width:0.345676"
               d="m 82.15587,186.43228 v -9.8172 h 4.507611 q 0.719019,0 1.327398,0.3042 0.60838,0.29036 1.037036,0.77431 0.442452,0.47013 0.691343,1.09234 0.248892,0.60838 0.248892,1.2306 0,0.85729 -0.373326,1.60394 -0.373348,0.73284 -1.037036,1.20295 l 2.07405,3.60886 h -3.041939 l -1.728379,-3.0143 h -1.009382 v 3.0143 z m 2.696268,-5.3649 h 1.700725 q 0.248891,0 0.456289,-0.27652 0.221237,-0.27655 0.221237,-0.77433 0,-0.5116 -0.248891,-0.77431 -0.24887,-0.27654 -0.497761,-0.27654 h -1.631599 z" />
            <path
               inkscape:connector-curvature="0"
               id="path69289"
               d="m 75.651884,175.75993 c -3.167627,0 -5.763897,2.59627 -5.763897,5.76389 0,3.16765 2.59627,5.76349 5.763897,5.76349 3.167648,0 5.763897,-2.59584 5.763897,-5.76349 0,-3.16762 -2.596249,-5.76389 -5.763897,-5.76389 z m 0,2.63951 c 1.741224,0 3.124406,1.38316 3.124406,3.12438 0,1.74125 -1.383182,3.12441 -3.124406,3.12441 -1.741224,0 -3.124385,-1.38316 -3.124385,-3.12441 0,-1.74122 1.383161,-3.12438 3.124385,-3.12438 z"
               style="color:#000000;font-style:normal;font-variant:normal;font-weight:normal;font-stretch:normal;font-size:medium;line-height:normal;font-family:sans-serif;font-variant-ligatures:normal;font-variant-position:normal;font-variant-caps:normal;font-variant-numeric:normal;font-variant-alternates:normal;font-feature-settings:normal;text-indent:0;text-align:start;text-decoration:none;text-decoration-line:none;text-decoration-style:solid;text-decoration-color:#000000;letter-spacing:normal;word-spacing:normal;text-transform:none;writing-mode:lr-tb;direction:ltr;text-orientation:mixed;dominant-baseline:auto;baseline-shift:baseline;text-anchor:start;white-space:normal;shape-padding:0;clip-rule:nonzero;display:inline;overflow:visible;visibility:visible;opacity:1;isolation:auto;mix-blend-mode:normal;color-interpolation:sRGB;color-interpolation-filters:linearRGB;solid-color:#000000;solid-opacity:1;vector-effect:none;fill:#ffffff;fill-opacity:1;fill-rule:nonzero;stroke:none;stroke-width:2.63935;stroke-linecap:round;stroke-linejoin:round;stroke-miterlimit:4;stroke-dasharray:none;stroke-dashoffset:0;stroke-opacity:1;color-rendering:auto;image-rendering:auto;shape-rendering:auto;text-rendering:auto;enable-background:accumulate" />
          </g>
        </g>
      </g>
    </g>
  </g>
</svg>
